<svg xmlns="http://www.w3.org/2000/svg" viewBox="0 0 105.99 32"><defs><style>.cls-1{fill:#81b28c;}.cls-2{fill:#80a3d7;}.cls-3,.cls-4{fill:#41418b;}.cls-4{fill-rule:evenodd;}</style></defs><title>Recurso 4</title><g id="Capa_2" data-name="Capa 2"><g id="Capa_1-2" data-name="Capa 1"><path class="cls-1" d="M27.15,8.23c-8.33,0-12,3-12.23,3.15a5.09,5.09,0,0,0,4.05,0,24,24,0,0,1,7.88-.95s.32-2.25.3-2.25"/><path class="cls-2" d="M32.87,4.68c-5.69.73-2.48,16.76.16,19.53-.26-2.42-.35-10-.42-11h0c0-.16.08-1.26.09-1.42,0,0-.24-1.09-.24-1.17v0l.24,1.15c.16-1.66.17-7.11.17-7.11"/><path class="cls-2" d="M32.06,1.64C25.33.67,17.7,5.31,17,7.17,22.05,4.23,28.11,4.21,30.8,4c.08-.08.16-.08.2,0l-.2,0s.61-1.23,1.26-2.32"/><path class="cls-1" d="M12.33,23.72c.28.45,1.92,1,4.31.56,1.29-.29,6.14-1.11,9.39-.36.07-.84.11-3.07.11-3.07a24.84,24.84,0,0,0-13.81,2.88"/><path class="cls-1" d="M26.82,13.8c-8.55,0-13.59,3.39-13.78,3.49.61.77,1.83,1.07,4,.45,1.93-.34,4.53-1.4,9.37-.86Z"/><path class="cls-3" d="M26.86,8.45l-.32,4,1.32-4.64c-5.19-.82-13.24,2.94-14,4.3,1.83-1.34,9-4,13-3.63"/><path class="cls-3" d="M26.31,14.22v4.72l.9-5.4c-9.55,0-14,3.24-15.47,4.65a27.23,27.23,0,0,1,14.57-4"/><path class="cls-3" d="M10.4,24.71s7.32-4.45,15.23-3.83a30.32,30.32,0,0,0,.12,3.62,9.58,9.58,0,0,0,.47,2.16l.3-6.45c-7.4-.89-15.07,3.1-16.12,4.49"/><path class="cls-3" d="M33.68.09a24.45,24.45,0,0,0-8.75.73c-4.5,1-8.26,3.69-9.08,5.38C19.1,2.8,24.12.73,32.22.75A5.56,5.56,0,0,0,30.81,4,32.35,32.35,0,0,0,18,6.51,12.27,12.27,0,0,0,14.55,8.8a24.66,24.66,0,0,1,8.51-3.25,41.36,41.36,0,0,1,9.5-.77c-.55,7.12-.21,17,.84,22.11A187.46,187.46,0,0,1,33.37,4L31,3.93l1.6-2.55A3.07,3.07,0,0,1,33.68.09"/><path class="cls-3" d="M0,30.83,0,32c7-2.45,32.09-4.47,49-2.06,0,0-8-2.07-21.25-2a137.37,137.37,0,0,0-22,1.66A46.72,46.72,0,0,0,0,30.83"/><path class="cls-4" d="M44,13.26a3.49,3.49,0,0,0-1.06-.61,3.35,3.35,0,0,0-1.13-.19,2.89,2.89,0,0,0-2,.7A2.37,2.37,0,0,0,39,15a2.37,2.37,0,0,0,.68,1.8,2.67,2.67,0,0,0,1.9.67,3.57,3.57,0,0,0,1.27-.21A3.39,3.39,0,0,0,44,16.62l0,1.59a5.41,5.41,0,0,1-1.12.43,5.59,5.59,0,0,1-1.24.14,4.51,4.51,0,0,1-3.08-1.08A3.44,3.44,0,0,1,37.31,15a3.44,3.44,0,0,1,1.2-2.7,4.49,4.49,0,0,1,3.11-1.06,6.37,6.37,0,0,1,1.25.12,5,5,0,0,1,1.17.39Z"/><path class="cls-4" d="M53.6,15a3.48,3.48,0,0,1-.31,1.46,3.79,3.79,0,0,1-.91,1.21A4.29,4.29,0,0,1,51,18.5a4.63,4.63,0,0,1-3,0,4.15,4.15,0,0,1-1.24-.64,3.79,3.79,0,0,1-1.13-1.29,3.49,3.49,0,0,1-.08-3.07,3.52,3.52,0,0,1,.91-1.21,4.21,4.21,0,0,1,1.37-.81,4.77,4.77,0,0,1,1.61-.31,4.3,4.3,0,0,1,1.59.32,3.88,3.88,0,0,1,1.38.81,3.42,3.42,0,0,1,.9,1.21A3.23,3.23,0,0,1,53.6,15m-4.19,2.4a2.4,2.4,0,0,0,1.77-.68,2.25,2.25,0,0,0,.7-1.71,2.29,2.29,0,0,0-.71-1.72,2.36,2.36,0,0,0-1.75-.7,2.4,2.4,0,0,0-1.77.7A2.29,2.29,0,0,0,46.94,15a2.33,2.33,0,0,0,.68,1.71,2.45,2.45,0,0,0,1.79.68"/><path class="cls-4" d="M55,18.6l0-7.19h1.74l3.47,4.19a2.91,2.91,0,0,1,.34.49,6,6,0,0,1,.37.75c0-.21-.06-.42-.07-.62s0-.48,0-.79v-4h1.59V18.6H60.8l-3.57-4.27a2.24,2.24,0,0,1-.32-.5c-.12-.21-.25-.47-.38-.77a6.18,6.18,0,0,1,.1.63c0,.21,0,.47,0,.8l0,4.11Z"/><path class="cls-4" d="M63.69,17.7l.94-1a1.33,1.33,0,0,0,.58.63,1.84,1.84,0,0,0,.87.23,1.41,1.41,0,0,0,.94-.27.8.8,0,0,0,.35-.69c0-.34-.38-.67-1.15-1l-.58-.25a4.44,4.44,0,0,1-1.43-1,1.68,1.68,0,0,1-.39-1.12,1.81,1.81,0,0,1,.77-1.47,3.33,3.33,0,0,1,2-.56,3,3,0,0,1,1.24.23,2.35,2.35,0,0,1,.91.7l-1,.88a1.2,1.2,0,0,0-.47-.48,1.74,1.74,0,0,0-.72-.14,1.36,1.36,0,0,0-.8.21.75.75,0,0,0-.3.6c0,.39.4.72,1.2,1l.38.14a4.11,4.11,0,0,1,1.47,1,1.66,1.66,0,0,1,.47,1.2,2,2,0,0,1-.74,1.61,3.2,3.2,0,0,1-2,.6,3.88,3.88,0,0,1-1.55-.29,2,2,0,0,1-1-.82"/><path class="cls-4" d="M78.41,15a3.37,3.37,0,0,1-.32,1.46,3.65,3.65,0,0,1-.88,1.21,5.13,5.13,0,0,1-1.38.81,4.45,4.45,0,0,1-1.6.28,4.23,4.23,0,0,1-1.4-.23,4.3,4.3,0,0,1-1.27-.64,3.65,3.65,0,0,1-1.14-1.29,3.57,3.57,0,0,1-.08-3.07,3.78,3.78,0,0,1,.91-1.21,4.64,4.64,0,0,1,3-1.11,4.66,4.66,0,0,1,1.61.29,4.43,4.43,0,0,1,1.37.81,3.72,3.72,0,0,1,.9,1.23A3.24,3.24,0,0,1,78.41,15m-4.19,2.4A2.42,2.42,0,0,0,76,16.76a2.45,2.45,0,0,0,0-3.44,2.42,2.42,0,0,0-1.76-.7,2.39,2.39,0,0,0-1.76.69A2.3,2.3,0,0,0,71.75,15a2.37,2.37,0,0,0,.69,1.72,2.44,2.44,0,0,0,1.78.68"/><path class="cls-4" d="M85.54,18.64h-2l-2.06-3.35v3.35H79.84V11.44h2.4a3.74,3.74,0,0,1,2.16.49,1.8,1.8,0,0,1,.71,1.54,1.74,1.74,0,0,1-.49,1.26,1.84,1.84,0,0,1-1.25.61Zm-4-4.13h.25a2.89,2.89,0,0,0,1.34-.2.76.76,0,0,0,.32-.71.83.83,0,0,0-.34-.75,2.76,2.76,0,0,0-1.32-.23h-.25Z"/><path class="cls-4" d="M92.85,13.32a3.62,3.62,0,0,0-1-.62,3.53,3.53,0,0,0-1.13-.19,2.8,2.8,0,0,0-2,.7A2.38,2.38,0,0,0,87.9,15a2.4,2.4,0,0,0,.69,1.8,2.62,2.62,0,0,0,1.9.66,3.8,3.8,0,0,0,1.27-.2,3.92,3.92,0,0,0,1.09-.63l0,1.58a4.3,4.3,0,0,1-1.12.42,5.25,5.25,0,0,1-1.24.15,4.41,4.41,0,0,1-3.08-1.08A3.4,3.4,0,0,1,86.18,15a3.44,3.44,0,0,1,1.2-2.7,4.52,4.52,0,0,1,3.11-1.06,6.5,6.5,0,0,1,1.25.12,6,6,0,0,1,1.17.38Z"/><polygon class="cls-4" points="94.46 18.65 94.46 11.46 96.14 11.46 96.13 18.66 94.46 18.65"/><path class="cls-4" d="M106,15.08a3.35,3.35,0,0,1-.34,1.46,3.67,3.67,0,0,1-.9,1.22,4.81,4.81,0,0,1-1.37.82,4.91,4.91,0,0,1-1.6.27,4.69,4.69,0,0,1-1.42-.23A4,4,0,0,1,99.11,18,3.74,3.74,0,0,1,98,16.69a3.38,3.38,0,0,1-.4-1.62,3.44,3.44,0,0,1,.32-1.46,3.82,3.82,0,0,1,.91-1.21,4.08,4.08,0,0,1,1.38-.81,4.41,4.41,0,0,1,3.21,0,4.12,4.12,0,0,1,1.37.83,3.75,3.75,0,0,1,.9,1.2,3.42,3.42,0,0,1,.32,1.45m-4.21,2.4a2.45,2.45,0,0,0,1.78-.68,2.33,2.33,0,0,0,.69-1.7,2.37,2.37,0,0,0-.7-1.73,2.43,2.43,0,0,0-1.76-.71,2.38,2.38,0,0,0-1.77.71,2.33,2.33,0,0,0-.72,1.72A2.31,2.31,0,0,0,100,16.8a2.44,2.44,0,0,0,1.79.68"/></g></g></svg>