<svg xmlns="http://www.w3.org/2000/svg" viewBox="0 0 72.54 36.77"><defs><style>.cls-1{fill:#404376;}.cls-2{fill:#fff;}.cls-3{fill:none;stroke:#404376;stroke-miterlimit:3.86;stroke-width:0.13px;}</style></defs><title>Recurso 3</title><g id="Capa_2" data-name="Capa 2"><g id="Capa_1-2" data-name="Capa 1"><path class="cls-1" d="M25.14,14.15c-.07-.11-.26,0-.26,0l-3.24,1.18a13.69,13.69,0,0,0-.86-1.71l1-2.85s.13-.28,0-.36-.31.12-.31.12l-1.9,1.55A8.42,8.42,0,0,0,17,10.18a11.18,11.18,0,0,0-1.17-.41l-.59-2.25s0-.22-.19-.22-.19.21-.19.21l-.38,2a10.5,10.5,0,0,0-1.27-.06,8.92,8.92,0,0,0-3.77.76,7.47,7.47,0,0,0-1.33.74,1.91,1.91,0,0,0-.2.16c-.4-1-.71-1.83-.77-2.09a3.47,3.47,0,0,0,.78-1.39,2.33,2.33,0,0,0,0-1.52,5.74,5.74,0,0,1-.35-1,.69.69,0,0,1,.21-.38.44.44,0,0,0-.41-.38,2.94,2.94,0,0,0-.46,0c-.05-.07-.13-.06-.07-.32s.83-.57,1.45-.81A1.77,1.77,0,0,0,9.46,1.51,1.4,1.4,0,0,0,8.66.17a1.87,1.87,0,0,1-.73.76,1.28,1.28,0,0,1-.86.13A1.06,1.06,0,0,0,6.54,0,1.28,1.28,0,0,1,5.37.47C4.74.45,4.71.31,3.81.31A2.28,2.28,0,0,0,1.38,2.19a2.56,2.56,0,0,0,.4,1.66,4,4,0,0,0-.6.58.47.47,0,0,0-.64-.05.87.87,0,0,1,0,.55A6.67,6.67,0,0,0,0,6.72,2.22,2.22,0,0,0,1.22,9a.58.58,0,0,0-.08.58.46.46,0,0,0,.43.22.63.63,0,0,0-.11.64c.11.27.42.65.68.65a6.47,6.47,0,0,0,.14,1,.87.87,0,0,0-.17.6.67.67,0,0,0,.5.65,1.59,1.59,0,0,0,.19.45,1.93,1.93,0,0,0,.39.36,1.16,1.16,0,0,0,.67.25,3,3,0,0,0,.61,0c0,.07,0,.78.07,1.53a18.51,18.51,0,0,0-1,6.28c0,4.11,1.16,7.77,3.41,10.11a2.05,2.05,0,0,0,.49.4,24.33,24.33,0,0,1,1.77-2.56,10.1,10.1,0,0,1,.9-1c.53-.46,1-.85,1.53-1.21a12.67,12.67,0,0,1,4.45-2,17.91,17.91,0,0,0-4.23,2.7,15.55,15.55,0,0,0-3.7,4.47,1.8,1.8,0,0,0,.91.4,23,23,0,0,1,3.23-4.2,15.38,15.38,0,0,1,10.32-4.22,21.4,21.4,0,0,0,.2-2.92,19.94,19.94,0,0,0-.5-4.66l2.7-3s.19-.2.11-.29"/><path class="cls-2" d="M4.92,12.78a2.06,2.06,0,0,0-1-.29,1.68,1.68,0,0,0-.91.27c-.13-.09-.17-.23-.1-.44a.29.29,0,0,1,.2-.19l-.1-1.72A4.36,4.36,0,0,1,3.67,10a.28.28,0,0,0,.18-.28,3.15,3.15,0,0,1,.7.71,1.35,1.35,0,0,1,.28.74,5.46,5.46,0,0,1-.06.94c.11.09.22.18.24.33a.61.61,0,0,1-.08.31"/><path class="cls-2" d="M20.64,18.15A3.21,3.21,0,0,0,20,16.72l4.11-1.82Z"/><path class="cls-2" d="M9.41,11.36l3.46,3.16a2.41,2.41,0,0,0-1,1.1Z"/><path class="cls-2" d="M11.43,17.59a1.35,1.35,0,0,0-.2.52,1.51,1.51,0,0,0,0,.52l-1-.73a8,8,0,0,0-.07-.87.56.56,0,0,1,0-.09Z"/><path class="cls-2" d="M5.57,17.89c-.07-.1-.37-6.51-.39-6.73l.34-.25v-.06a.86.86,0,0,1-.63-.26L4.81,8.65A2,2,0,0,1,4,8.37a.54.54,0,0,1-.1-.72A2.36,2.36,0,0,0,5,7.91c.09,0,.29.2.4.26a3.8,3.8,0,0,1,.44.2c.09,0,.14.26.18.33S9.18,17,9.24,17.1s.23,1.47.23,1.58A12.11,12.11,0,0,0,10.05,20a2.44,2.44,0,0,0-1.66.78,5.43,5.43,0,0,0-1.17,2.27c0-.29-1.58-5-1.65-5.16"/><path class="cls-2" d="M9.6,25.78a8.33,8.33,0,0,1-.9,3.14c-.31.51-1.15,1.52-1.44,1.92A8.84,8.84,0,0,0,7.8,27.5a17.62,17.62,0,0,1,0-3.6,4,4,0,0,1,1.36-2.63,2.57,2.57,0,0,1,2.47-.56l1,1.85a2.3,2.3,0,0,0-1.67.34A3.76,3.76,0,0,0,9.6,25.78"/><path class="cls-2" d="M9.69,28.26a18.23,18.23,0,0,0,.64-2.56,3.36,3.36,0,0,1,1-2.25,1.61,1.61,0,0,1,1.25-.27l1.11,2.23a.66.66,0,0,0,.64.31,16.77,16.77,0,0,0-4.63,2.54"/><path class="cls-2" d="M19.08,21.1a.71.71,0,0,0,0,.74l.69,1.27a6,6,0,0,0,.51,1.06h1c-.38-.85-1.27-2.52-1.27-2.52l-.06-1.34a3.06,3.06,0,0,0-.87.8"/><path class="cls-2" d="M14.38,14a3.84,3.84,0,0,1,1.72.16l-1-5.66Z"/><path class="cls-2" d="M12.24,16.35a1.83,1.83,0,0,0,0,1,1.12,1.12,0,0,0-.43.69.77.77,0,0,0,.16.64,1.32,1.32,0,0,1,.31-.75,2,2,0,0,1,.66-.44L13,18a1.24,1.24,0,0,0-.51.55l0,.78.58-.35.13.24L13,20.58l.32-.05.63.24-.61.51v.2a.35.35,0,0,1,.31-.11,3.44,3.44,0,0,1,.75.23l0,.13H13.3a.31.31,0,0,0,.17.3c.14,0,.29-.11.36-.11s.26,0,.42.06l-.18.26a.4.4,0,0,1-.29,0c-.09,0-.18.13-.18.24a2.75,2.75,0,0,0,.07.42.46.46,0,0,0,.6.34,8.71,8.71,0,0,0,1.24-.36l-.91,1.26.4,1.37a20.66,20.66,0,0,1,4.32-1.2,8.82,8.82,0,0,1-.51-1l-1-2.27.15-.34c.21.08.54-.08.76-.27a2.25,2.25,0,0,0,.57-.69.35.35,0,0,0-.37,0c-.11.09-.2.23-.37.16s-.08-.27-.07-.45-.22-.18-.36,0a.61.61,0,0,1-.71-.14A11.27,11.27,0,0,0,15.76,18,2.75,2.75,0,0,0,14,17.72c-.31.06-.52.2-.66.14l-.37-.62.05,0c.14.07.26.18.46.11a5.2,5.2,0,0,1,1.25-.18,6,6,0,0,1,2.18.45c0,.51,1.05,1.16,1.53,1.22a1.21,1.21,0,0,0,.87-.2l-1-.89.55-.67s.83.82,1,1a.82.82,0,0,0,0-.36A5.71,5.71,0,0,0,18,15.81a5.83,5.83,0,0,0-3.15-1.29,2.5,2.5,0,0,0-2.57,1.83"/><path class="cls-2" d="M6,8.69c0-.07-.09-.29-.18-.33a3.65,3.65,0,0,0-.44-.2c-.1-.05-.31-.26-.4-.26a2.34,2.34,0,0,1-1.1-.27.54.54,0,0,0,.1.72,2,2,0,0,0,.84.28l.09,1.94a.85.85,0,0,0,.63.26v.06l-.34.25c0,.22.31,6.63.38,6.73s1.61,4.87,1.65,5.16a5.31,5.31,0,0,1,1.17-2.27A2.43,2.43,0,0,1,10.05,20a11.12,11.12,0,0,1-.58-1.32c0-.11-.2-1.49-.23-1.58S6,8.79,6,8.69"/><path class="cls-2" d="M4,7.13a2.08,2.08,0,0,1,1.52.57.84.84,0,0,0-.29-.8,2.11,2.11,0,0,0-1.28-.34A1.81,1.81,0,0,0,2.8,6.9a.74.74,0,0,0-.22.78c.08-.25.64-.55,1.38-.55"/><path class="cls-2" d="M2.35,2.43a1.66,1.66,0,0,0,.22.91c.09.13.32.37.48.35s.43-.43,1-.42c.33,0,.57.49.85.51s.34-.2.57-.23.25.08.38.19c.07-.18.2-.31.49-.52s1.55-.51,2.06-1a.88.88,0,0,0,.24-.94,1.79,1.79,0,0,1-1.25.6,3.92,3.92,0,0,1-1.13-.22.71.71,0,0,0,0-.63,3.07,3.07,0,0,1-1.19.21c-.29,0-.86-.13-1.29-.11A1.44,1.44,0,0,0,2.35,2.43"/><path class="cls-2" d="M4,5.43c2.08,0,3,1,3,1.77a1.3,1.3,0,0,0,.07-.7c0-.23-.33-.82-.34-1A3.48,3.48,0,0,1,6.87,5c-.14,0-.6.21-.8.05s0-.59-.34-.69-.71.22-1,.18-.51-.41-.8-.41-.44.34-.8.43-.6-.11-.76-.09-.29.14-.36.31a.45.45,0,0,1-.37.3C1.5,5.1,1.28,5,1.15,5a.86.86,0,0,1,.06.68,2.65,2.65,0,0,0-.35.91A1.25,1.25,0,0,0,1,7.24C.95,6.12,2.19,5.4,4,5.43"/><path class="cls-2" d="M2.71,9.4a1.26,1.26,0,0,0-.6.53,1.28,1.28,0,0,0,.38.61,1.18,1.18,0,0,1,.33-.5,1.54,1.54,0,0,1,.36-.22.21.21,0,0,0,.15-.22.64.64,0,0,0-.07-.29c.11,0,.31,0,.36-.09a.54.54,0,0,0,.11-.34c0-.11,0-.13-.18-.15s-.46,0-.64,0l.34-.16a.25.25,0,0,0,.13-.18,1.1,1.1,0,0,0,0-.39,3,3,0,0,0-1.27.52l.14.35H2A1,1,0,0,0,2,9.46a3,3,0,0,1,.69-.06"/><path class="cls-1" d="M12.64,17.14a4.44,4.44,0,0,1,.85-.64l-.32-.78a1.63,1.63,0,0,0-.53,1.42"/><path class="cls-1" d="M14,16.38a3.45,3.45,0,0,1,1.79.09l.18-1a2.64,2.64,0,0,0-1.18-.25,2,2,0,0,0-1.11.29Z"/><path class="cls-1" d="M17.81,17.39l.5-.7a14.53,14.53,0,0,0-1.66-1l-.37,1a11.41,11.41,0,0,1,1.53.78"/><path class="cls-1" d="M13.67,19a1.2,1.2,0,0,1,.54.46l.33-.07-.14-.22a1.52,1.52,0,0,1,.43-.11.93.93,0,0,1,.66.17l.67-.17.08-.14a2.28,2.28,0,0,0-1.74-.6,3.66,3.66,0,0,0-.84.33Z"/><path class="cls-2" d="M17.68,14.82a7.92,7.92,0,0,1,1.41,1l2.09-4.47Z"/><path class="cls-1" d="M30.88,17.32c0,.69.29.9,1.34.9s1.53-.32,2.2-1.72h.25l-.25,2.2H27.93v-.24c1-.25,1.07-.47,1.07-1.38V11.65c0-.74-.17-1-1.07-1.17v-.26h4v.26c-.85.21-1.08.38-1.08,1.12Z"/><path class="cls-1" d="M37.39,17.54c0,.55.28.85.89.92v.24H34.84v-.24c.74-.14.92-.34.92-1v-2.9c0-.67-.2-.86-1-1v-.25L37.14,13h.25Z"/><path class="cls-1" d="M36.57,9.64a.93.93,0,0,1,.95.93,1,1,0,0,1-.95,1,1,1,0,0,1-1-1,.94.94,0,0,1,1-.93"/><path class="cls-1" d="M43.06,13a3.07,3.07,0,0,0-.65.09A3.18,3.18,0,0,0,41,14V9.64h-.25l-2.21.14V10c.51.09.82.34.82.82V18.7a14.12,14.12,0,0,0,2.66.21h.42c2.36-.14,3.27-1.46,3.27-3.07A2.69,2.69,0,0,0,43.06,13m-.65,5.44h0a1.92,1.92,0,0,1-.58.08c-.67,0-.87-.29-.87-.93V14.41c.56-.51.85-.66,1.29-.66a.57.57,0,0,1,.16,0c.87.09,1.45,1,1.45,2.26,0,1.47-.56,2.23-1.45,2.43"/><path class="cls-1" d="M50,18.21a1.55,1.55,0,0,1-.75-.18,2.51,2.51,0,0,1-1.19-2.54H52.2A2.74,2.74,0,0,0,49.34,13h-.07a3,3,0,0,0-3,3,2.86,2.86,0,0,0,3,2.9h0A3.1,3.1,0,0,0,52.2,17H52A2.26,2.26,0,0,1,50,18.21m-.78-4.79h0c.66,0,1.11.74,1.16,1.74H48.07c.06-1.05.49-1.74,1.16-1.74"/><path class="cls-1" d="M57.45,15.14a1.94,1.94,0,0,0-1.24-.7c-.49,0-.79.2-1.2.78v2.24c0,.65.12.86.92,1v.24H52.44v-.24c.72-.18.9-.4.9-1V14.56a.93.93,0,0,0-1-1.07v-.25l2.4-.22H55v1.74h0c.54-1.17,1.14-1.74,1.81-1.74a1.34,1.34,0,0,1,1,.47Z"/><path class="cls-1" d="M66.67,13.23v.25c.69.15.85.59.36,1.74L66.28,17l-1.15-2.38c-.34-.7-.34-1,.27-1.11v-.25H60.57V11.13H60.3a10.51,10.51,0,0,1-2.36,2.27v.26h1v3.53a1.64,1.64,0,0,0,1.87,1.72,1.82,1.82,0,0,0,1.74-1l-.16-.15a1,1,0,0,1-.8.42c-.76,0-1-.52-1-1.39V13.66H62c.8,0,1,.29,1.38,1l2,4.21c-.65,1.8-1.23,2.52-2.25,2.52a2.24,2.24,0,0,1-.74-.11L62.08,23a2.09,2.09,0,0,0,.45,0c1.15,0,1.77-.49,2.34-1.82l2.76-6.3c.44-1,.62-1.21,1.31-1.4v-.25Z"/><path class="cls-3" d="M65.64,21.55h6.9M28,21.55H61.21"/><path class="cls-1" d="M37.23,32.22A1.35,1.35,0,0,1,36.5,32a2.45,2.45,0,0,1-1.19-2.48h4.07a2.68,2.68,0,0,0-2.82-2.41H36.5a2.89,2.89,0,0,0-2.91,2.92,2.83,2.83,0,0,0,2.91,2.85h0a3,3,0,0,0,2.87-1.86h-.23a2.23,2.23,0,0,1-1.93,1.16m-.76-4.7h0c.64,0,1.11.73,1.16,1.71H35.32c.07-1,.49-1.71,1.15-1.71"/><path class="cls-1" d="M59,29.19a2.06,2.06,0,0,0-1.23-.7c-.49,0-.81.19-1.21.78v2.22c0,.65.12.85.93,1v.24H54v-.24c.73-.17.92-.38.92-1V28.61c0-.69-.3-1-1-1.05V27.3l2.4-.22h.26v1.73h0c.54-1.17,1.14-1.73,1.81-1.73a1.29,1.29,0,0,1,1,.47Z"/><path class="cls-1" d="M30.17,32.8a8.09,8.09,0,0,1-1.76-.29.54.54,0,0,0-.22.25l-.34,0V30.37h.32c.25.83,1,1.94,2.07,1.94s1.53-.37,1.53-1c0-1.05-1.11-1.62-1.91-2a3.07,3.07,0,0,1-2-2.56,2.43,2.43,0,0,1,3-2.43,11.82,11.82,0,0,0,1.28.18c.16,0,.22-.17.22-.17h.31V26.5l-.31,0c-.22-.67-.82-1.66-1.75-1.66s-1.45.43-1.45,1.09.92,1.27,1.56,1.61l.91.5a2.69,2.69,0,0,1,1.51,2.53c0,1.45-1,2.21-3,2.21"/><path class="cls-1" d="M68.39,32.82c-.78,0-.69-.19-1.27-.16a.36.36,0,0,0-.31.15h-.31V30.73h.31c.2.62.65,1.48,1.5,1.61s1.19-.16,1.19-.64c0-.67-.87-1-1.46-1.24s-1.56-.62-1.56-1.72.84-1.65,2.27-1.51a7,7,0,0,0,1,.08.15.15,0,0,0,.17-.12h.34l0,1.68h-.29a1.69,1.69,0,0,0-1.38-1.27c-.65,0-1,.2-1,.66s.45.59,1.26.87c1,.33,1.91.89,1.67,2.21-.17.91-.7,1.52-2.13,1.49"/><path class="cls-1" d="M52.81,31.24c0,1.2.85,1.07.85,1.07v.36s-1.34,0-2.48.14c0-.23,0-.81,0-.92s0-.13-.11-.13a2.06,2.06,0,0,1-2,1.07c-1.13,0-1.61-.58-1.61-1.74,0,0,0-1,0-2.33s-.86-1.06-.86-1.06v-.36l1.53-.1a8.45,8.45,0,0,0,.92-.13c0,.49,0,.85,0,1.35v2.25c0,.65.15,1.21,1,1.21a1.15,1.15,0,0,0,.72-.31,1.57,1.57,0,0,0,.38-.61V28.43a.75.75,0,0,0-.77-.77l0-.32a14.71,14.71,0,0,0,2.34-.19c0,.68,0,4.09,0,4.09"/><path class="cls-1" d="M62.76,27.14h0a3,3,0,0,0-3.25,3c0,1.85,1.51,2.78,3.21,2.78h0c1.75,0,3.29-.95,3.29-2.89s-1.53-2.87-3.24-2.87m1.42,3.19c-.09,1.27-.49,2.18-1.47,2.12h0c-1-.09-1.56-1.24-1.43-2.74s.72-2.07,1.46-2.08h.13c1,.07,1.42,1.31,1.34,2.7"/><path class="cls-1" d="M43.88,32.49c-.27,0-.71,0-1.15-.07-.67,0-1.37-.16-1.4-.55s.86-.51,1.07-.49h.33c2,0,2.79-1.06,2.74-2.08a1.51,1.51,0,0,0-.57-1.1h1.22v-.93s-1.89,0-2.25,0a3.61,3.61,0,0,0-1.15-.19h-.09c-1.78,0-2.67,1.08-2.67,2.2s.86,1.53,1.55,1.82c.08.1-.07.12-.25.18S40,31.4,40,32.39s.89,1,1.38,1.15c.13,0,.11.13-.09.14a3.72,3.72,0,0,0-1,.36,1.27,1.27,0,0,0-.68,1.14c0,.86,1.18,1.57,3.12,1.57h0a4.28,4.28,0,0,0,2.65-.8,2.21,2.21,0,0,0,.72-1.27v-.47a2.4,2.4,0,0,0-2.26-1.73M42.7,27.63h0c.64,0,1.16.58,1.16,1.75s-.49,1.53-1,1.53a.2.2,0,0,1-.11,0c-.67-.05-1.16-.74-1.16-1.81s.55-1.45,1.13-1.45m.24,8.23-.2,0c-1.08-.2-1.86-.75-1.78-1.28s.81-.76,1.78-.74a4.41,4.41,0,0,1,.47,0c1.18.16,2.06.75,2,1.31s-1.08.87-2.26.7"/></g></g></svg>