<?xml version="1.0" encoding="utf-8"?>
<!-- Generator: Adobe Illustrator 21.0.0, SVG Export Plug-In . SVG Version: 6.00 Build 0)  -->
<svg version="1.1" id="Primer_plano" xmlns="http://www.w3.org/2000/svg" xmlns:xlink="http://www.w3.org/1999/xlink" x="0px"
	 y="0px" viewBox="0 0 265.1 69.9" style="enable-background:new 0 0 265.1 69.9;" xml:space="preserve">
<style type="text/css">
	.st0{fill:#C20D19;}
	.st1{fill:#3E3E3D;}
</style>
<g>
	<g>
		<path class="st0" d="M122.2,23c1.3-3.3,2.4-6,3.4-8.1s2.2-3.2,3.7-3.3c0.6,0,0.9,0.3,1,1c0,0.6-0.5,2.3-1.6,5
			c-0.5,1.2-1.2,3-2.1,5.3c2.6-0.1,4.2-0.1,4.7-0.1c1.8-0.1,3.1,0,3.7,0.3c0.5,0.2,0.8,0.7,0.8,1.5c0.1,1.4-0.5,2.1-1.7,2.2
			c-0.3,0-0.8,0-1.5-0.1c-0.5-0.1-2.6,0-6.1,0.2H125c-0.8,2.2-1.6,4.6-2.3,7.1c-0.7,2.2-1.2,3.8-1.7,4.5c-0.5,0.9-1.2,1.4-1.9,1.4
			c-0.4,0-0.8-0.1-1.1-0.3c-0.4-0.3-0.6-0.7-0.6-1.1c-0.1-1.2,1-4.9,3.3-11.3c-2.4,0.2-4,0.4-4.8,0.6c-0.7,0.2-1.3,0.3-1.8,0.3
			c-0.7,0-1.3-0.2-1.7-0.8c-0.2-0.3-0.4-0.7-0.4-1.1c-0.1-1.3,0.6-2.1,2.1-2.5c0.7-0.2,3.1-0.4,7.1-0.7L122.2,23z"/>
	</g>
	<polygon class="st0" points="265.1,69.9 246.7,69.9 246.7,66.3 261.6,66.3 261.6,51.5 265.1,51.5 	"/>
	<polygon class="st0" points="265.1,0 265.1,18.4 261.6,18.4 261.6,3.5 246.7,3.5 246.7,0 	"/>
	<polygon class="st0" points="0,0 18.5,0 18.5,3.5 3.6,3.5 3.6,18.4 0,18.4 	"/>
	<polygon class="st0" points="0,69.9 0,51.4 3.6,51.4 3.6,66.3 18.5,66.3 18.5,69.9 	"/>
	<g>
		<path class="st1" d="M25.4,38c-0.9,0-1.7-0.1-2.4-0.2c-0.7-0.1-1.3-0.3-1.9-0.5c-0.5-0.2-1-0.4-1.4-0.7c-0.4-0.2-0.7-0.5-0.9-0.7
			l1.9-3.1c0.1,0.1,0.3,0.2,0.6,0.4s0.6,0.4,1,0.5c0.4,0.2,0.8,0.3,1.3,0.5c0.5,0.1,1.1,0.2,1.7,0.2c1.1,0,1.9-0.2,2.5-0.7
			s0.9-1.1,0.9-1.7c0-0.5-0.1-0.9-0.4-1.2c-0.3-0.3-0.6-0.6-1.1-0.9c-0.4-0.3-0.9-0.5-1.5-0.8c-0.6-0.2-1.2-0.5-1.8-0.8
			c-0.7-0.3-1.3-0.7-1.8-1.1c-0.6-0.4-1-0.8-1.4-1.3s-0.7-1.1-1-1.7c-0.2-0.6-0.4-1.4-0.4-2.3c0-0.9,0.2-1.7,0.5-2.5
			c0.4-0.7,0.9-1.3,1.5-1.9c0.6-0.5,1.3-0.9,2.2-1.2c0.8-0.3,1.7-0.4,2.7-0.4c0.9,0,1.6,0.1,2.3,0.2c0.7,0.1,1.3,0.3,1.8,0.5
			s0.9,0.4,1.3,0.6c0.3,0.2,0.6,0.4,0.9,0.6L30.7,21c-0.2-0.1-0.4-0.3-0.7-0.4c-0.3-0.1-0.6-0.3-1-0.4c-0.4-0.1-0.8-0.2-1.2-0.3
			s-0.9-0.1-1.3-0.1c-0.9,0-1.6,0.2-2.1,0.6c-0.5,0.4-0.8,0.9-0.8,1.6c0,0.4,0.1,0.8,0.3,1.1s0.5,0.5,0.8,0.8
			c0.4,0.2,0.8,0.5,1.2,0.7c0.5,0.2,1,0.4,1.5,0.7c0.7,0.3,1.4,0.7,2,1c0.7,0.4,1.2,0.8,1.7,1.3s0.9,1.1,1.2,1.8s0.5,1.5,0.5,2.5
			s-0.2,1.8-0.5,2.6c-0.4,0.8-0.9,1.5-1.5,2c-0.7,0.5-1.5,1-2.4,1.3C27.6,37.8,26.6,38,25.4,38z"/>
		<path class="st1" d="M43,38c-1.4,0-2.5-0.2-3.5-0.7s-1.8-1.1-2.4-1.8c-0.6-0.8-1.1-1.7-1.4-2.7s-0.4-2-0.4-2.9c0-1,0.1-2,0.4-3
			c0.3-1,0.8-1.9,1.4-2.6c0.6-0.8,1.4-1.4,2.4-1.9s2.1-0.7,3.5-0.7s2.5,0.2,3.5,0.7c1,0.5,1.8,1.1,2.5,1.8c0.6,0.8,1.1,1.6,1.4,2.6
			s0.5,2,0.5,2.9c0,1-0.2,2-0.5,2.9c-0.3,1-0.8,1.9-1.4,2.6c-0.6,0.8-1.5,1.4-2.4,1.9C45.6,37.8,44.4,38,43,38z M43.1,34.8
			c1.2,0,2.1-0.4,2.6-1.3c0.5-0.9,0.7-2.1,0.7-3.5c0-0.7-0.1-1.4-0.2-2c-0.1-0.6-0.3-1.1-0.6-1.6c-0.3-0.4-0.6-0.8-1.1-1.1
			c-0.4-0.3-1-0.4-1.5-0.4c-0.6,0-1.1,0.1-1.5,0.4c-0.4,0.2-0.7,0.6-1,1s-0.4,0.9-0.5,1.5s-0.2,1.3-0.2,2s0.1,1.4,0.2,2
			c0.1,0.6,0.3,1.1,0.6,1.6c0.3,0.4,0.6,0.8,1,1C42,34.7,42.5,34.8,43.1,34.8z"/>
		<path class="st1" d="M53.9,22.1H58V24c0.2-0.2,0.4-0.5,0.7-0.7c0.3-0.3,0.6-0.5,1-0.8c0.4-0.2,0.8-0.4,1.3-0.6
			c0.5-0.2,1-0.2,1.7-0.2c1.1,0,2,0.2,2.6,0.7c0.6,0.4,1.1,1,1.4,1.8c0.7-0.7,1.4-1.3,2.1-1.8c0.8-0.4,1.7-0.7,2.8-0.7
			c0.8,0,1.5,0.1,2.1,0.4c0.6,0.3,1,0.6,1.4,1.1c0.4,0.4,0.6,1,0.8,1.6c0.1,0.6,0.2,1.3,0.2,2v10.9h-4.2v-10c0-0.8-0.1-1.3-0.4-1.8
			c-0.3-0.4-0.7-0.6-1.5-0.6c-0.3,0-0.6,0.1-0.9,0.2c-0.3,0.1-0.6,0.3-0.8,0.4c-0.2,0.2-0.5,0.4-0.7,0.6c-0.2,0.2-0.4,0.4-0.5,0.6
			v10.6h-4.2v-10c0-0.8-0.1-1.4-0.4-1.8c-0.3-0.4-0.7-0.6-1.4-0.6c-0.4,0-0.7,0.1-1.1,0.2c-0.3,0.2-0.6,0.3-0.9,0.6
			c-0.2,0.2-0.4,0.4-0.6,0.6c-0.2,0.2-0.3,0.4-0.4,0.5v10.5h-4.2V22.1z"/>
		<path class="st1" d="M86.8,38c-1.4,0-2.5-0.2-3.5-0.7s-1.8-1.1-2.4-1.8c-0.6-0.8-1.1-1.7-1.4-2.7s-0.4-2-0.4-2.9c0-1,0.1-2,0.4-3
			s0.8-1.9,1.4-2.6c0.6-0.8,1.4-1.4,2.4-1.9s2.1-0.7,3.5-0.7s2.5,0.2,3.5,0.7s1.8,1.1,2.5,1.8c0.6,0.8,1.1,1.6,1.4,2.6
			s0.5,2,0.5,2.9c0,1-0.2,2-0.5,2.9c-0.3,1-0.8,1.9-1.4,2.6c-0.6,0.8-1.5,1.4-2.4,1.9C89.4,37.8,88.2,38,86.8,38z M86.9,34.8
			c1.2,0,2.1-0.4,2.6-1.3c0.5-0.9,0.7-2.1,0.7-3.5c0-0.7-0.1-1.4-0.2-2s-0.3-1.1-0.6-1.6c-0.3-0.4-0.6-0.8-1.1-1.1
			c-0.4-0.3-1-0.4-1.5-0.4c-0.6,0-1.1,0.1-1.5,0.4c-0.4,0.2-0.7,0.6-1,1s-0.4,0.9-0.5,1.5s-0.2,1.3-0.2,2s0.1,1.4,0.2,2
			s0.3,1.1,0.6,1.6c0.3,0.4,0.6,0.8,1,1C85.8,34.7,86.3,34.8,86.9,34.8z"/>
		<path class="st1" d="M102,38c-1.4,0-2.6-0.2-3.4-0.5c-0.9-0.3-1.6-0.7-2.1-1l1.4-3c0.1,0.1,0.4,0.2,0.6,0.4
			c0.3,0.1,0.6,0.3,0.9,0.4c0.3,0.1,0.7,0.2,1.1,0.3s0.8,0.1,1.2,0.1c0.8,0,1.4-0.1,1.9-0.4c0.4-0.2,0.7-0.6,0.7-1.1
			c0-0.3-0.1-0.5-0.3-0.7c-0.2-0.2-0.5-0.4-0.8-0.5c-0.4-0.2-0.8-0.3-1.2-0.5c-0.5-0.2-1-0.4-1.5-0.7c-1.1-0.5-1.9-1.1-2.6-1.8
			c-0.6-0.7-0.9-1.6-0.9-2.8c0-1.5,0.5-2.6,1.6-3.5s2.5-1.3,4.2-1.3c1.3,0,2.4,0.2,3.2,0.5c0.8,0.3,1.4,0.6,1.8,0.8l-1.5,2.9
			c-0.3-0.2-0.7-0.4-1.3-0.6c-0.6-0.2-1.2-0.4-2-0.4c-0.7,0-1.3,0.1-1.6,0.4c-0.3,0.2-0.5,0.6-0.5,1c0,0.3,0.1,0.5,0.2,0.7
			c0.2,0.2,0.4,0.3,0.7,0.5c0.3,0.1,0.6,0.3,1,0.4c0.4,0.1,0.8,0.3,1.3,0.5c0.6,0.3,1.2,0.5,1.7,0.8s1,0.6,1.3,1
			c0.4,0.4,0.7,0.8,0.9,1.3c0.2,0.5,0.3,1,0.3,1.7c0,1.6-0.5,2.9-1.6,3.7C105.4,37.6,103.9,38,102,38z"/>
	</g>
	<g>
		<path class="st0" d="M146.4,38c-0.9,0-1.7-0.1-2.4-0.2c-0.7-0.1-1.3-0.3-1.9-0.5c-0.5-0.2-1-0.4-1.4-0.7c-0.4-0.2-0.7-0.5-0.9-0.7
			l1.9-3.1c0.1,0.1,0.3,0.2,0.6,0.4s0.6,0.4,1,0.5c0.4,0.2,0.8,0.3,1.3,0.5c0.5,0.1,1.1,0.2,1.7,0.2c1.1,0,1.9-0.2,2.5-0.7
			s0.9-1.1,0.9-1.7c0-0.5-0.1-0.9-0.4-1.2c-0.3-0.3-0.6-0.6-1.1-0.9c-0.4-0.3-0.9-0.5-1.5-0.8c-0.6-0.2-1.2-0.5-1.8-0.8
			c-0.7-0.3-1.3-0.7-1.8-1.1c-0.6-0.4-1-0.8-1.4-1.3s-0.7-1.1-1-1.7c-0.2-0.6-0.4-1.4-0.4-2.3c0-0.9,0.2-1.7,0.5-2.5
			c0.4-0.7,0.8-1.3,1.5-1.9c0.6-0.5,1.3-0.9,2.2-1.2c0.8-0.3,1.7-0.4,2.7-0.4c0.9,0,1.6,0.1,2.3,0.2c0.7,0.1,1.3,0.3,1.8,0.5
			s0.9,0.4,1.3,0.6c0.3,0.2,0.6,0.4,0.9,0.6l-1.8,3.2c-0.2-0.1-0.4-0.3-0.7-0.4c-0.3-0.1-0.6-0.3-1-0.4c-0.4-0.1-0.8-0.2-1.2-0.3
			s-0.9-0.1-1.3-0.1c-0.9,0-1.6,0.2-2.1,0.6c-0.5,0.4-0.8,0.9-0.8,1.6c0,0.4,0.1,0.8,0.3,1.1s0.5,0.5,0.8,0.8
			c0.4,0.2,0.8,0.5,1.2,0.7c0.5,0.2,1,0.4,1.5,0.7c0.7,0.3,1.4,0.7,2,1c0.7,0.4,1.2,0.8,1.7,1.3s0.9,1.1,1.2,1.8s0.5,1.5,0.5,2.5
			s-0.2,1.8-0.5,2.6s-0.9,1.5-1.5,2c-0.7,0.5-1.5,1-2.4,1.3C148.6,37.8,147.5,38,146.4,38z"/>
		<path class="st0" d="M164.3,38c-1.3,0-2.5-0.2-3.5-0.6c-1-0.4-1.9-1-2.6-1.7c-0.7-0.7-1.2-1.6-1.6-2.6c-0.4-1-0.5-2.1-0.5-3.4
			c0-1.2,0.2-2.3,0.6-3.3c0.4-1,0.9-1.8,1.6-2.5c0.7-0.7,1.5-1.2,2.4-1.6c0.9-0.4,1.9-0.6,3-0.6c2.2,0,3.9,0.7,5,2s1.7,3.2,1.7,5.7
			c0,0.2,0,0.5,0,0.7s0,0.5,0,0.7h-9.8c0.1,1.1,0.5,2.1,1.1,2.9c0.6,0.8,1.6,1.1,2.9,1.1c1.1,0,1.9-0.1,2.5-0.4
			c0.6-0.3,1.1-0.5,1.5-0.7l1.4,2.7c-0.3,0.1-0.6,0.3-0.9,0.5c-0.3,0.2-0.7,0.3-1.2,0.5c-0.5,0.1-1,0.3-1.6,0.4
			C165.8,37.9,165.1,38,164.3,38z M166.5,27.9c0-0.4-0.1-0.9-0.2-1.2c-0.1-0.4-0.3-0.7-0.5-1s-0.5-0.5-0.8-0.7s-0.8-0.3-1.2-0.3
			c-0.9,0-1.6,0.3-2.1,0.8c-0.5,0.6-0.8,1.3-1,2.4H166.5z"/>
		<path class="st0" d="M179.6,45.2c-2.1,0-3.8-0.3-5-1s-1.8-1.7-1.8-3.1c0-0.9,0.2-1.6,0.7-2.2c0.5-0.6,1.1-1.1,1.9-1.6
			c-0.4-0.3-0.8-0.6-1-1s-0.4-0.8-0.4-1.4c0-0.7,0.2-1.3,0.5-1.8s0.7-0.9,1.2-1.1c-0.9-0.5-1.6-1.1-2-1.9c-0.5-0.8-0.7-1.7-0.7-2.7
			c0-0.8,0.2-1.6,0.5-2.3s0.8-1.3,1.4-1.8c0.6-0.5,1.3-0.9,2.2-1.1c0.9-0.3,1.8-0.4,2.9-0.4c1,0,2,0.1,2.8,0.4h5.6V25h-2.1
			c0.4,0.7,0.6,1.6,0.6,2.5c0,1.7-0.6,3-1.7,4.1c-1.1,1-2.8,1.6-5,1.6c-0.3,0-0.6,0-0.9,0c-0.3,0-0.6-0.1-0.9-0.1
			c-0.4,0.2-0.6,0.5-0.6,0.9s0.2,0.7,0.7,0.8s1.3,0.2,2.4,0.3c0.8,0,1.6,0.1,2.5,0.2c0.9,0.1,1.6,0.3,2.4,0.6
			c0.7,0.3,1.3,0.8,1.8,1.4c0.5,0.6,0.7,1.5,0.7,2.7c0,0.8-0.2,1.6-0.6,2.3c-0.4,0.7-1,1.3-1.7,1.8c-0.8,0.5-1.7,0.9-2.7,1.2
			C182,45.1,180.8,45.2,179.6,45.2z M179.8,42.4c1.3,0,2.3-0.2,3-0.7c0.7-0.4,1.1-1,1.1-1.6c0-0.4-0.1-0.7-0.3-0.9s-0.4-0.4-0.8-0.5
			c-0.3-0.1-0.7-0.2-1.2-0.2s-1-0.1-1.5-0.1c-0.4,0-0.7-0.1-1.1-0.1c-0.4,0-0.7-0.1-1.1-0.1c-0.8,0.6-1.2,1.3-1.2,2.2
			c0,0.6,0.2,1.1,0.7,1.5C177.9,42.2,178.7,42.4,179.8,42.4z M179.9,30.2c0.9,0,1.6-0.3,2.1-0.8s0.7-1.2,0.7-2.1
			c0-0.9-0.2-1.6-0.7-2.1s-1.2-0.8-2.1-0.8c-0.9,0-1.6,0.3-2.1,0.8s-0.7,1.2-0.7,2.1c0,0.9,0.2,1.6,0.7,2.1
			C178.3,30,179,30.2,179.9,30.2z"/>
		<path class="st0" d="M195.5,38c-0.9,0-1.6-0.1-2.2-0.4c-0.6-0.3-1.1-0.6-1.4-1.1c-0.4-0.5-0.6-1-0.8-1.6s-0.3-1.3-0.3-2V22.1h4.2
			v10c0,0.8,0.2,1.4,0.5,1.8c0.3,0.4,0.8,0.6,1.6,0.6c0.4,0,0.8-0.1,1.1-0.3c0.4-0.2,0.7-0.4,0.9-0.6c0.3-0.2,0.5-0.4,0.7-0.6
			c0.2-0.2,0.3-0.4,0.4-0.5V22.1h4.2v11.1c0,1,0,1.9,0.1,2.6c0.1,0.8,0.2,1.4,0.3,1.8h-4.2c-0.1-0.2-0.1-0.5-0.2-1
			c-0.1-0.4-0.1-0.8-0.1-1.1c-0.2,0.3-0.5,0.5-0.8,0.8s-0.7,0.6-1.1,0.8c-0.4,0.2-0.9,0.4-1.4,0.6C196.7,37.9,196.1,38,195.5,38z"/>
		<path class="st0" d="M208.7,22.1h4.2v2.1c0.2-0.3,0.4-0.6,0.6-0.9c0.2-0.3,0.5-0.6,0.8-0.8s0.7-0.4,1.1-0.6
			c0.4-0.1,0.9-0.2,1.4-0.2c0.6,0,1,0,1.4,0.1c0.3,0.1,0.6,0.2,0.7,0.3l-1,3.7c-0.1-0.1-0.3-0.2-0.6-0.2c-0.3-0.1-0.6-0.1-1.1-0.1
			s-0.9,0.1-1.3,0.3c-0.4,0.2-0.7,0.4-1,0.7s-0.5,0.5-0.7,0.8s-0.3,0.5-0.4,0.7v9.8h-4.2V22.1H208.7z"/>
		<path class="st0" d="M227.5,38c-1.4,0-2.5-0.2-3.5-0.7s-1.8-1.1-2.4-1.8c-0.6-0.8-1.1-1.6-1.4-2.6c-0.3-1-0.4-2-0.4-2.9
			c0-1,0.1-2,0.4-3c0.3-1,0.8-1.9,1.4-2.6c0.6-0.8,1.4-1.4,2.4-1.9s2.1-0.7,3.5-0.7s2.5,0.2,3.5,0.7s1.8,1.1,2.5,1.8
			c0.6,0.8,1.1,1.6,1.4,2.6c0.3,1,0.5,2,0.5,2.9c0,1-0.2,2-0.5,2.9c-0.3,1-0.8,1.9-1.4,2.6c-0.6,0.8-1.5,1.4-2.4,1.9
			C230,37.8,228.8,38,227.5,38z M227.5,34.8c1.2,0,2.1-0.4,2.6-1.3c0.5-0.9,0.7-2.1,0.7-3.5c0-0.7-0.1-1.4-0.2-2
			c-0.1-0.6-0.3-1.1-0.6-1.6c-0.3-0.4-0.6-0.8-1.1-1.1c-0.4-0.3-1-0.4-1.5-0.4c-0.6,0-1.1,0.1-1.5,0.4c-0.4,0.2-0.7,0.6-1,1
			s-0.4,0.9-0.5,1.5s-0.2,1.3-0.2,2s0.1,1.4,0.2,2c0.1,0.6,0.3,1.1,0.6,1.6c0.3,0.4,0.6,0.8,1,1C226.4,34.7,227,34.8,227.5,34.8z"/>
		<path class="st0" d="M242.6,38c-1.4,0-2.6-0.2-3.4-0.5c-0.9-0.3-1.6-0.7-2.1-1l1.4-3c0.1,0.1,0.4,0.2,0.6,0.4
			c0.3,0.1,0.6,0.3,0.9,0.4c0.3,0.1,0.7,0.2,1.1,0.3s0.8,0.1,1.2,0.1c0.8,0,1.4-0.1,1.9-0.4c0.4-0.2,0.7-0.6,0.7-1.1
			c0-0.3-0.1-0.5-0.3-0.7c-0.2-0.2-0.5-0.4-0.8-0.5c-0.4-0.2-0.8-0.3-1.2-0.5c-0.5-0.2-1-0.4-1.5-0.7c-1.1-0.5-1.9-1.1-2.6-1.8
			c-0.6-0.7-0.9-1.6-0.9-2.8c0-1.5,0.5-2.6,1.6-3.5s2.5-1.3,4.2-1.3c1.3,0,2.4,0.2,3.2,0.5c0.8,0.3,1.4,0.6,1.8,0.8l-1.5,2.9
			c-0.3-0.2-0.7-0.4-1.3-0.6c-0.6-0.2-1.2-0.4-2-0.4c-0.7,0-1.3,0.1-1.6,0.4c-0.3,0.2-0.5,0.6-0.5,1c0,0.3,0.1,0.5,0.2,0.7
			c0.2,0.2,0.4,0.3,0.7,0.5c0.3,0.1,0.6,0.3,1,0.4c0.4,0.1,0.8,0.3,1.3,0.5c0.6,0.3,1.2,0.5,1.7,0.8s1,0.6,1.3,1
			c0.4,0.4,0.7,0.8,0.9,1.3c0.2,0.5,0.3,1,0.3,1.7c0,1.6-0.5,2.9-1.6,3.7C246.1,37.6,244.6,38,242.6,38z"/>
	</g>
	<g>
		<path d="M19.2,50h1.3c0.3,0,0.5,0,0.7,0.1s0.4,0.2,0.6,0.3c0.2,0.1,0.3,0.3,0.4,0.5c0.1,0.2,0.1,0.4,0.1,0.7
			c0,0.5-0.2,0.9-0.5,1.2c-0.3,0.3-0.8,0.4-1.4,0.4h-0.6v2.1h-0.6V50z M20.4,52.7c0.5,0,0.8-0.1,1-0.3s0.3-0.5,0.3-0.8
			c0-0.1,0-0.3-0.1-0.4c0-0.1-0.1-0.2-0.2-0.3c-0.1-0.1-0.2-0.2-0.4-0.2c-0.2-0.1-0.4-0.1-0.6-0.1h-0.6v2.1H20.4z"/>
		<path d="M24.7,50h1.4c0.6,0,1,0.1,1.3,0.4c0.3,0.2,0.5,0.6,0.5,1c0,0.2,0,0.4-0.1,0.6c-0.1,0.2-0.2,0.3-0.3,0.4
			c-0.1,0.1-0.3,0.2-0.5,0.3c-0.2,0.1-0.4,0.1-0.6,0.1l0,0c0.1,0,0.1,0.1,0.2,0.2c0.1,0.1,0.2,0.2,0.4,0.5l1.3,1.8h-0.8l-1-1.5
			c-0.2-0.2-0.3-0.4-0.4-0.5c-0.1-0.1-0.2-0.2-0.3-0.3c-0.1-0.1-0.1-0.1-0.2-0.1c-0.1,0-0.1,0-0.2,0h-0.1v2.4h-0.6V50z M26.1,52.4
			c0.4,0,0.7-0.1,0.9-0.2c0.2-0.2,0.3-0.4,0.3-0.7S27.2,51,27,50.8c-0.2-0.1-0.5-0.2-0.9-0.2h-0.8v1.8
			C25.3,52.4,26.1,52.4,26.1,52.4z"/>
		<path d="M32.6,55.4c-0.4,0-0.8-0.1-1.1-0.2s-0.6-0.3-0.8-0.6c-0.2-0.3-0.4-0.5-0.5-0.9c-0.1-0.3-0.2-0.7-0.2-1
			c0-0.4,0.1-0.7,0.2-1c0.1-0.3,0.3-0.6,0.5-0.9c0.2-0.3,0.5-0.5,0.8-0.6s0.7-0.2,1.1-0.2c0.4,0,0.8,0.1,1.1,0.2
			c0.3,0.1,0.6,0.3,0.8,0.6s0.4,0.5,0.5,0.9c0.1,0.3,0.2,0.7,0.2,1c0,0.4-0.1,0.7-0.2,1c-0.1,0.3-0.3,0.6-0.5,0.9s-0.5,0.5-0.8,0.6
			C33.3,55.4,33,55.4,32.6,55.4z M32.5,54.9c0.3,0,0.6-0.1,0.8-0.2s0.4-0.3,0.6-0.5c0.2-0.2,0.3-0.4,0.4-0.7
			c0.1-0.3,0.1-0.6,0.1-0.8c0-0.3,0-0.6-0.1-0.9c-0.1-0.3-0.2-0.5-0.4-0.7s-0.4-0.4-0.6-0.5c-0.2-0.1-0.5-0.2-0.8-0.2
			s-0.6,0.1-0.8,0.2c-0.2,0.1-0.4,0.3-0.6,0.5c-0.2,0.2-0.3,0.4-0.4,0.7c-0.1,0.3-0.1,0.5-0.1,0.8c0,0.3,0,0.6,0.1,0.8
			c0.1,0.3,0.2,0.5,0.4,0.7s0.4,0.4,0.6,0.5C31.9,54.9,32.2,54.9,32.5,54.9z"/>
		<path d="M39.8,55.4c-0.4,0-0.8-0.1-1.1-0.2c-0.3-0.2-0.6-0.4-0.8-0.6c-0.2-0.3-0.4-0.6-0.5-0.9s-0.2-0.7-0.2-1
			c0-0.4,0.1-0.7,0.2-1c0.1-0.3,0.3-0.6,0.5-0.9c0.2-0.3,0.5-0.5,0.8-0.6s0.7-0.2,1.1-0.2c0.3,0,0.7,0,0.9,0.1
			c0.3,0.1,0.5,0.2,0.7,0.4L41.1,51c-0.2-0.2-0.4-0.3-0.6-0.3c-0.2-0.1-0.5-0.1-0.7-0.1c-0.3,0-0.6,0.1-0.9,0.2
			c-0.3,0.1-0.5,0.3-0.6,0.5c-0.2,0.2-0.3,0.4-0.4,0.7c-0.1,0.3-0.1,0.5-0.1,0.8s0,0.6,0.1,0.8c0.1,0.3,0.2,0.5,0.4,0.7
			s0.4,0.4,0.6,0.5c0.3,0.1,0.5,0.2,0.9,0.2c0.3,0,0.5,0,0.8-0.1c0.2-0.1,0.4-0.1,0.5-0.2v-1.5H40v-0.5h1.8V55
			c-0.2,0.2-0.5,0.3-0.8,0.4C40.7,55.4,40.3,55.4,39.8,55.4z"/>
		<path d="M44.4,50h1.4c0.6,0,1,0.1,1.3,0.4c0.3,0.2,0.5,0.6,0.5,1c0,0.2,0,0.4-0.1,0.6c-0.1,0.2-0.2,0.3-0.3,0.4
			c-0.1,0.1-0.3,0.2-0.5,0.3c-0.2,0.1-0.4,0.1-0.6,0.1l0,0c0.1,0,0.1,0.1,0.2,0.2c0.1,0.1,0.2,0.2,0.4,0.5l1.3,1.8h-0.7l-1.2-1.5
			c-0.2-0.2-0.3-0.4-0.4-0.5c-0.1-0.1-0.2-0.2-0.3-0.3c-0.1-0.1-0.1-0.1-0.2-0.1c-0.1,0-0.1,0-0.2,0h-0.1v2.4h-0.6V50H44.4z
			 M45.8,52.4c0.4,0,0.7-0.1,0.9-0.2c0.2-0.2,0.3-0.4,0.3-0.7s-0.1-0.5-0.3-0.7c-0.2-0.1-0.5-0.2-0.9-0.2h-0.7v1.8
			C45.1,52.4,45.8,52.4,45.8,52.4z"/>
		<path d="M51.5,50h0.6l2,5.3h-0.6L53,54h-2.4l-0.5,1.3h-0.6L51.5,50z M52.8,53.5l-0.7-1.8c-0.1-0.2-0.2-0.4-0.2-0.5
			s-0.1-0.3-0.1-0.4l0,0c0,0.1-0.1,0.3-0.1,0.4c0,0.1-0.1,0.3-0.2,0.5l-0.7,1.8H52.8z"/>
		<path d="M56.7,50h0.6l1.3,3.6c0.1,0.2,0.1,0.4,0.2,0.5c0,0.1,0.1,0.3,0.1,0.4l0,0c0-0.1,0.1-0.3,0.1-0.4s0.1-0.3,0.2-0.5l1.3-3.6
			h0.6l0.7,5.3h-0.6l-0.5-3.5c0-0.2,0-0.3-0.1-0.5c0-0.1,0-0.2,0-0.3l0,0c0,0.1-0.1,0.2-0.1,0.3s-0.1,0.3-0.1,0.4l-1.3,3.5h-0.6
			l-1.3-3.5c-0.1-0.2-0.1-0.3-0.2-0.4c0-0.1-0.1-0.2-0.1-0.3l0,0c0,0.1,0,0.2,0,0.3s0,0.3,0,0.4l-0.4,3.6h-0.6L56.7,50z"/>
		<path d="M65.7,50h0.6l2,5.3h-0.7L67.1,54h-2.4l-0.5,1.3h-0.6L65.7,50z M67,53.5l-0.7-1.8c-0.1-0.2-0.2-0.4-0.2-0.5
			S66,50.9,66,50.8l0,0c0,0.1-0.1,0.3-0.1,0.4c-0.1,0.1-0.1,0.3-0.2,0.5L65,53.5H67z"/>
		<path d="M73.4,50h1.2c0.5,0,1,0.1,1.3,0.2c0.4,0.1,0.7,0.3,0.9,0.5c0.2,0.2,0.4,0.5,0.5,0.8s0.2,0.7,0.2,1.1s-0.1,0.7-0.2,1.1
			c-0.1,0.3-0.3,0.6-0.6,0.9c-0.2,0.2-0.6,0.4-0.9,0.6c-0.4,0.1-0.8,0.2-1.4,0.2h-1.2V50H73.4z M74.7,54.8c0.8,0,1.4-0.2,1.7-0.6
			c0.4-0.4,0.6-0.9,0.6-1.6c0-0.7-0.2-1.3-0.6-1.6s-1-0.5-1.8-0.5H74v4.3H74.7z"/>
		<path d="M80,50h2.7v0.5h-2.1v1.7h1.8v0.6h-1.8v2h2.2v0.5H80C80,55.3,80,50,80,50z"/>
		<path d="M88.2,50H91v0.5h-2.2v1.7h1.9v0.6h-1.9v2.6h-0.6C88.2,55.4,88.2,50,88.2,50z"/>
		<path d="M95.5,55.4c-0.4,0-0.8-0.1-1.1-0.2c-0.3-0.1-0.6-0.3-0.8-0.6c-0.2-0.3-0.4-0.5-0.5-0.9c-0.1-0.3-0.2-0.7-0.2-1
			c0-0.4,0.1-0.7,0.2-1s0.3-0.6,0.5-0.9c0.2-0.3,0.5-0.5,0.8-0.6s0.7-0.2,1.1-0.2s0.8,0.1,1.1,0.2c0.3,0.1,0.6,0.3,0.8,0.6
			c0.2,0.3,0.4,0.5,0.5,0.9c0.1,0.3,0.2,0.7,0.2,1c0,0.4-0.1,0.7-0.2,1s-0.3,0.6-0.5,0.9s-0.5,0.5-0.8,0.6
			C96.3,55.4,96,55.4,95.5,55.4z M95.5,54.9c0.3,0,0.6-0.1,0.8-0.2c0.2-0.1,0.4-0.3,0.6-0.5s0.3-0.4,0.4-0.7
			c0.1-0.3,0.1-0.6,0.1-0.8c0-0.3,0-0.6-0.1-0.9c-0.1-0.3-0.2-0.5-0.4-0.7c-0.2-0.2-0.4-0.4-0.6-0.5s-0.5-0.2-0.8-0.2
			s-0.6,0.1-0.8,0.2c-0.2,0.1-0.4,0.3-0.6,0.5s-0.3,0.4-0.4,0.7s-0.1,0.5-0.1,0.8c0,0.3,0,0.6,0.1,0.8c0.1,0.3,0.2,0.5,0.4,0.7
			c0.2,0.2,0.4,0.4,0.6,0.5C94.9,54.9,95.2,54.9,95.5,54.9z"/>
		<path d="M100.5,50h1.4c0.6,0,1,0.1,1.3,0.4c0.3,0.2,0.5,0.6,0.5,1c0,0.2,0,0.4-0.1,0.6c-0.1,0.2-0.2,0.3-0.3,0.4
			c-0.1,0.1-0.3,0.2-0.5,0.3s-0.4,0.1-0.6,0.1l0,0c0.1,0,0.1,0.1,0.2,0.2s0.2,0.2,0.4,0.5l1.3,1.8h-0.7l-1.1-1.5
			c-0.2-0.2-0.3-0.4-0.4-0.5s-0.2-0.2-0.3-0.3c-0.1-0.1-0.1-0.1-0.2-0.1s-0.1,0-0.2,0h-0.1v2.4h-0.6V50z M101.9,52.4
			c0.4,0,0.7-0.1,0.9-0.2c0.2-0.2,0.3-0.4,0.3-0.7s-0.1-0.5-0.3-0.7c-0.2-0.1-0.5-0.2-0.9-0.2h-0.8v1.8
			C101.1,52.4,101.9,52.4,101.9,52.4z"/>
		<path d="M106.6,50h0.6l1.3,3.6c0.1,0.2,0.1,0.4,0.2,0.5c0,0.1,0.1,0.3,0.1,0.4l0,0c0-0.1,0.1-0.3,0.1-0.4s0.1-0.3,0.2-0.5l1.3-3.6
			h0.6l0.7,5.3h-0.6l-0.5-3.5c0-0.2,0-0.3-0.1-0.5c0-0.1,0-0.2,0-0.3l0,0c0,0.1-0.1,0.2-0.1,0.3s-0.1,0.3-0.1,0.4l-1.3,3.5h-0.6
			l-1.3-3.5c-0.1-0.2-0.1-0.3-0.2-0.4c0-0.1-0.1-0.2-0.1-0.3l0,0c0,0.1,0,0.2,0,0.3s0,0.3,0,0.4l-0.4,3.5h-0.6L106.6,50z"/>
		<path d="M115.7,50h0.6l2,5.3h-0.7l-0.5-1.3h-2.4l-0.5,1.3h-0.6L115.7,50z M116.9,53.5l-0.7-1.8c-0.1-0.2-0.2-0.4-0.2-0.5
			s-0.1-0.3-0.1-0.4l0,0c0,0.1-0.1,0.3-0.1,0.4c-0.1,0.1-0.1,0.3-0.2,0.5l-0.7,1.8H116.9z"/>
		<path d="M122.5,55.4c-0.4,0-0.8-0.1-1.1-0.2c-0.3-0.2-0.6-0.4-0.8-0.6c-0.2-0.3-0.4-0.5-0.5-0.9c-0.1-0.3-0.2-0.7-0.2-1
			c0-0.4,0.1-0.7,0.2-1c0.1-0.3,0.3-0.6,0.5-0.9c0.2-0.2,0.5-0.5,0.8-0.6s0.7-0.2,1.1-0.2c0.3,0,0.6,0,0.9,0.1
			c0.2,0.1,0.4,0.2,0.6,0.3l-0.3,0.5c-0.2-0.1-0.3-0.2-0.5-0.3s-0.4-0.1-0.7-0.1s-0.6,0.1-0.8,0.2c-0.2,0.1-0.4,0.3-0.6,0.5
			c-0.2,0.2-0.3,0.4-0.4,0.7c-0.1,0.3-0.1,0.5-0.1,0.8c0,0.3,0,0.6,0.1,0.8c0.1,0.3,0.2,0.5,0.4,0.7s0.4,0.4,0.6,0.5
			c0.2,0.1,0.5,0.2,0.9,0.2c0.3,0,0.5,0,0.7-0.1s0.4-0.2,0.6-0.3l0.3,0.4c-0.1,0.1-0.2,0.1-0.3,0.2s-0.2,0.1-0.4,0.2
			c-0.1,0.1-0.3,0.1-0.5,0.1C122.8,55.4,122.7,55.4,122.5,55.4z"/>
		<path d="M126.4,50h0.6v5.3h-0.6V50z"/>
		<path d="M132,55.4c-0.4,0-0.8-0.1-1.1-0.2s-0.6-0.3-0.8-0.6c-0.2-0.3-0.4-0.5-0.5-0.9c-0.1-0.3-0.2-0.7-0.2-1c0-0.4,0.1-0.7,0.2-1
			c0.1-0.3,0.3-0.6,0.5-0.9c0.2-0.3,0.5-0.5,0.8-0.6s0.7-0.2,1.1-0.2c0.4,0,0.8,0.1,1.1,0.2c0.3,0.1,0.6,0.3,0.8,0.6
			s0.4,0.5,0.5,0.9c0.1,0.3,0.2,0.7,0.2,1c0,0.4-0.1,0.7-0.2,1c-0.1,0.3-0.3,0.6-0.5,0.9s-0.5,0.5-0.8,0.6
			C132.8,55.4,132.4,55.4,132,55.4z M132,54.9c0.3,0,0.6-0.1,0.8-0.2s0.4-0.3,0.6-0.5c0.2-0.2,0.3-0.4,0.4-0.7
			c0.1-0.3,0.1-0.6,0.1-0.8c0-0.3,0-0.6-0.1-0.9c-0.1-0.3-0.2-0.5-0.4-0.7s-0.4-0.4-0.6-0.5c-0.2-0.1-0.5-0.2-0.8-0.2
			s-0.6,0.1-0.8,0.2c-0.2,0.1-0.4,0.3-0.6,0.5c-0.2,0.2-0.3,0.4-0.4,0.7c-0.1,0.3-0.1,0.5-0.1,0.8c0,0.3,0,0.6,0.1,0.8
			c0.1,0.3,0.2,0.5,0.4,0.7s0.4,0.4,0.6,0.5C131.4,54.9,131.7,54.9,132,54.9z M132.5,48.6h0.9l-1.1,1h-0.5L132.5,48.6z"/>
		<path d="M137,50h0.6l2.5,3.6c0.1,0.2,0.2,0.3,0.3,0.5c0.1,0.1,0.1,0.2,0.2,0.3l0,0c0-0.1,0-0.1,0-0.2s0-0.3,0-0.5V50h0.6v5.3h-0.6
			l-2.6-3.8c-0.1-0.1-0.2-0.2-0.2-0.4c-0.1-0.1-0.1-0.2-0.2-0.3l0,0c0,0.1,0,0.1,0,0.2c0,0.1,0,0.2,0,0.3v3.9H137V50z"/>
		<path d="M146.9,50h2.7v0.5h-2.1v1.7h1.8v0.6h-1.8v2h2.2v0.5h-2.8V50z"/>
		<path d="M151.5,56.8c-0.1,0-0.2,0-0.3,0s-0.1,0-0.2-0.1l0.1-0.5h0.1c0.1,0,0.1,0,0.2,0c0.2,0,0.4-0.1,0.5-0.2
			c0.1-0.2,0.2-0.4,0.2-0.7V50h0.6v5.4c0,0.5-0.1,0.8-0.3,1C152.2,56.7,151.9,56.8,151.5,56.8z"/>
		<path d="M155.4,50h2.7v0.5H156v1.7h1.8v0.6H156v2h2.2v0.5h-2.8L155.4,50L155.4,50z"/>
		<path d="M162.8,55.4c-0.4,0-0.8-0.1-1.1-0.2c-0.3-0.2-0.6-0.4-0.8-0.6c-0.2-0.3-0.4-0.5-0.5-0.9c-0.1-0.3-0.2-0.7-0.2-1
			c0-0.4,0.1-0.7,0.2-1c0.1-0.3,0.3-0.6,0.5-0.9c0.2-0.2,0.5-0.5,0.8-0.6s0.7-0.2,1.1-0.2c0.3,0,0.6,0,0.9,0.1
			c0.2,0.1,0.4,0.2,0.6,0.3l-0.3,0.5c-0.2-0.1-0.3-0.2-0.5-0.3s-0.4-0.1-0.7-0.1s-0.6,0.1-0.8,0.2c-0.2,0.1-0.4,0.3-0.6,0.5
			c-0.2,0.2-0.3,0.4-0.4,0.7c-0.1,0.3-0.1,0.5-0.1,0.8c0,0.3,0,0.6,0.1,0.8c0.1,0.3,0.2,0.5,0.4,0.7s0.4,0.4,0.6,0.5
			c0.2,0.1,0.5,0.2,0.9,0.2c0.3,0,0.5,0,0.8-0.1c0.2-0.1,0.4-0.2,0.5-0.3l0.3,0.4c-0.1,0.1-0.2,0.1-0.3,0.2s-0.2,0.1-0.4,0.2
			c-0.1,0.1-0.3,0.1-0.4,0.1C163.2,55.4,163,55.4,162.8,55.4z"/>
		<path d="M168.6,55.4c-0.4,0-0.7,0-0.9-0.2c-0.3-0.1-0.5-0.2-0.6-0.4c-0.2-0.2-0.3-0.4-0.4-0.7c-0.1-0.3-0.1-0.5-0.1-0.8V50h0.6
			v3.2c0,0.6,0.1,1,0.3,1.2c0.2,0.3,0.6,0.4,1.1,0.4s0.8-0.1,1.1-0.4c0.2-0.3,0.3-0.6,0.3-1.1v-3.4h0.6v3.3c0,0.3,0,0.6-0.1,0.9
			s-0.2,0.5-0.4,0.7s-0.4,0.3-0.6,0.4C169.3,55.4,169,55.4,168.6,55.4z"/>
		<path d="M174.2,50.6h-1.5v-0.5h3.6v0.5h-1.5v4.8h-0.6V50.6z"/>
		<path d="M178.5,50h0.6v5.3h-0.6V50z"/>
		<path d="M181.3,50h0.7l1.4,3.7c0.1,0.2,0.1,0.4,0.2,0.6c0.1,0.2,0.1,0.3,0.1,0.4l0,0c0-0.1,0.1-0.2,0.1-0.4
			c0.1-0.2,0.1-0.3,0.2-0.6l1.3-3.7h0.6l-2,5.3h-0.6L181.3,50z"/>
		<path d="M188.9,50h0.6l2,5.3h-0.7l-0.5-1.3h-2.4l-0.5,1.3h-0.6L188.9,50z M190.2,53.5l-0.7-1.8c-0.1-0.2-0.2-0.4-0.2-0.5
			s-0.1-0.3-0.1-0.4l0,0c0,0.1-0.1,0.3-0.1,0.4c-0.1,0.1-0.1,0.3-0.2,0.5l-0.7,1.8H190.2z"/>
	</g>
</g>
</svg>
