<?xml version="1.0" encoding="utf-8"?>
<!-- Generator: Adobe Illustrator 21.0.0, SVG Export Plug-In . SVG Version: 6.00 Build 0)  -->
<svg version="1.1" id="ESP" xmlns="http://www.w3.org/2000/svg" xmlns:xlink="http://www.w3.org/1999/xlink" x="0px" y="0px"
	 viewBox="0 0 318.9 111" style="enable-background:new 0 0 318.9 111;" xml:space="preserve">
<style type="text/css">
	.st0{fill:#FFFFFF;}
</style>
<g>
	<g>
		<g>
			<path class="st0" d="M197.9,45.4c1.1-2.8,2-5,2.9-6.9c0.8-1.8,1.9-2.7,3.1-2.8c0.5,0,0.8,0.2,0.8,0.8c0,0.5-0.4,2-1.4,4.3
				c-0.4,1-1,2.5-1.8,4.5c2.2-0.1,3.5-0.1,4-0.1c1.6-0.1,2.6,0,3.1,0.3c0.4,0.2,0.7,0.6,0.7,1.3c0.1,1.2-0.4,1.8-1.4,1.8
				c-0.3,0-0.7,0-1.3,0c-0.5,0-2.2,0-5.2,0.2h-1.3c-0.7,1.9-1.3,3.9-2,6c-0.6,1.9-1.1,3.2-1.4,3.8c-0.5,0.8-1,1.2-1.6,1.2
				c-0.4,0-0.7-0.1-0.9-0.3c-0.3-0.2-0.5-0.6-0.5-0.9c0-1,0.9-4.2,2.8-9.6c-2.1,0.2-3.4,0.4-4,0.5c-0.6,0.2-1.1,0.2-1.5,0.3
				c-0.6,0-1.1-0.2-1.5-0.7c-0.2-0.3-0.3-0.6-0.3-0.9c-0.1-1.1,0.5-1.8,1.7-2.1c0.6-0.1,2.6-0.3,6-0.6L197.9,45.4z"/>
		</g>
		<polygon class="st0" points="318.9,85.1 303.2,85.1 303.2,82.1 315.8,82.1 315.8,69.5 318.9,69.5 		"/>
		<polygon class="st0" points="318.9,25.9 318.9,41.5 315.8,41.5 315.8,28.9 303.2,28.9 303.2,25.9 		"/>
		<polygon class="st0" points="94.6,25.9 110.2,25.9 110.2,28.9 97.6,28.9 97.6,41.5 94.6,41.5 		"/>
		<polygon class="st0" points="94.6,85.1 94.6,69.5 97.6,69.5 97.6,82.1 110.2,82.1 110.2,85.1 		"/>
		<g>
			<path class="st0" d="M116,58.1c-0.7,0-1.4-0.1-2-0.2c-0.6-0.1-1.1-0.3-1.6-0.5s-0.9-0.4-1.2-0.6c-0.3-0.2-0.6-0.4-0.8-0.6
				l1.6-2.6c0.1,0.1,0.3,0.2,0.5,0.3c0.2,0.2,0.5,0.3,0.8,0.4c0.3,0.1,0.7,0.3,1.1,0.4c0.4,0.1,0.9,0.2,1.4,0.2
				c0.9,0,1.6-0.2,2.1-0.6c0.5-0.4,0.7-0.9,0.7-1.5c0-0.4-0.1-0.7-0.3-1s-0.5-0.5-0.9-0.7s-0.8-0.4-1.3-0.6c-0.5-0.2-1-0.4-1.5-0.7
				c-0.6-0.3-1.1-0.6-1.5-0.9c-0.5-0.3-0.9-0.7-1.2-1.1c-0.3-0.4-0.6-0.9-0.8-1.4c-0.2-0.5-0.3-1.2-0.3-1.9c0-0.8,0.2-1.5,0.5-2.1
				s0.7-1.1,1.2-1.6c0.5-0.4,1.1-0.8,1.8-1s1.5-0.4,2.3-0.4c0.7,0,1.4,0.1,2,0.2c0.6,0.1,1.1,0.2,1.5,0.4s0.8,0.3,1.1,0.5
				s0.5,0.3,0.7,0.5l-1.5,2.7c-0.2-0.1-0.4-0.2-0.6-0.4c-0.2-0.1-0.5-0.2-0.8-0.4c-0.3-0.1-0.6-0.2-1-0.3s-0.7-0.1-1.1-0.1
				c-0.7,0-1.3,0.2-1.8,0.5c-0.4,0.3-0.6,0.8-0.6,1.4c0,0.4,0.1,0.7,0.3,0.9s0.4,0.5,0.7,0.7s0.6,0.4,1.1,0.6
				c0.4,0.2,0.8,0.4,1.3,0.6c0.6,0.3,1.2,0.6,1.7,0.9c0.6,0.3,1,0.7,1.5,1.1c0.4,0.4,0.8,0.9,1,1.5c0.3,0.6,0.4,1.3,0.4,2.1
				s-0.1,1.5-0.4,2.2c-0.3,0.7-0.7,1.2-1.3,1.7s-1.2,0.8-2,1.1C117.9,58,117,58.1,116,58.1z"/>
			<path class="st0" d="M131,58.1c-1.2,0-2.1-0.2-3-0.6c-0.8-0.4-1.5-0.9-2.1-1.6c-0.5-0.6-0.9-1.4-1.2-2.2s-0.4-1.6-0.4-2.5
				c0-0.8,0.1-1.7,0.4-2.5c0.3-0.8,0.6-1.6,1.2-2.2c0.5-0.7,1.2-1.2,2-1.6c0.8-0.4,1.8-0.6,3-0.6c1.1,0,2.1,0.2,3,0.6
				c0.8,0.4,1.5,0.9,2.1,1.6c0.5,0.6,1,1.4,1.2,2.2c0.3,0.8,0.4,1.6,0.4,2.5c0,0.8-0.1,1.7-0.4,2.5c-0.3,0.8-0.7,1.6-1.2,2.2
				c-0.5,0.7-1.2,1.2-2.1,1.6C133.1,57.9,132.1,58.1,131,58.1z M131,55.4c1,0,1.7-0.4,2.2-1.1c0.4-0.8,0.6-1.8,0.6-3
				c0-0.6-0.1-1.2-0.2-1.7c-0.1-0.5-0.3-1-0.5-1.3c-0.2-0.4-0.5-0.7-0.9-0.9s-0.8-0.3-1.3-0.3s-0.9,0.1-1.3,0.3
				c-0.3,0.2-0.6,0.5-0.8,0.8c-0.2,0.4-0.4,0.8-0.5,1.3s-0.1,1.1-0.1,1.7c0,0.6,0.1,1.2,0.2,1.7c0.1,0.5,0.3,1,0.5,1.3
				c0.2,0.4,0.5,0.7,0.9,0.9C130.1,55.3,130.5,55.4,131,55.4z"/>
			<path class="st0" d="M140.2,44.6h3.5v1.6c0.2-0.2,0.4-0.4,0.6-0.6c0.2-0.2,0.5-0.4,0.8-0.6c0.3-0.2,0.7-0.4,1.1-0.5
				c0.4-0.1,0.9-0.2,1.4-0.2c0.9,0,1.7,0.2,2.2,0.6c0.5,0.4,0.9,0.9,1.2,1.5c0.6-0.6,1.2-1.1,1.8-1.5s1.4-0.6,2.4-0.6
				c0.7,0,1.3,0.1,1.8,0.3s0.9,0.5,1.2,0.9s0.5,0.8,0.6,1.3s0.2,1.1,0.2,1.7v9.2h-3.6v-8.5c0-0.6-0.1-1.1-0.3-1.5
				c-0.2-0.3-0.6-0.5-1.2-0.5c-0.3,0-0.5,0-0.8,0.1c-0.2,0.1-0.5,0.2-0.7,0.4c-0.2,0.1-0.4,0.3-0.6,0.5c-0.2,0.2-0.3,0.3-0.4,0.5v9
				h-3.7v-8.5c0-0.7-0.1-1.2-0.4-1.5c-0.2-0.3-0.6-0.5-1.2-0.5c-0.3,0-0.6,0.1-0.9,0.2c-0.3,0.1-0.5,0.3-0.7,0.5s-0.4,0.4-0.5,0.5
				c-0.1,0.2-0.2,0.3-0.3,0.4v8.8h-3.6L140.2,44.6L140.2,44.6z"/>
			<path class="st0" d="M168,58.1c-1.2,0-2.1-0.2-3-0.6c-0.8-0.4-1.5-0.9-2-1.6c-0.5-0.6-0.9-1.4-1.2-2.2s-0.4-1.6-0.4-2.5
				c0-0.8,0.1-1.7,0.4-2.5c0.3-0.8,0.6-1.6,1.2-2.2c0.5-0.7,1.2-1.2,2-1.6c0.8-0.4,1.8-0.6,3-0.6s2.1,0.2,3,0.6
				c0.8,0.4,1.5,0.9,2.1,1.6c0.5,0.6,1,1.4,1.2,2.2c0.3,0.8,0.4,1.6,0.4,2.5c0,0.8-0.1,1.7-0.4,2.5c-0.3,0.8-0.7,1.6-1.2,2.2
				c-0.5,0.7-1.2,1.2-2.1,1.6C170.2,57.9,169.2,58.1,168,58.1z M168.1,55.4c1,0,1.7-0.4,2.2-1.1c0.4-0.8,0.6-1.8,0.6-3
				c0-0.6-0.1-1.2-0.2-1.7c-0.1-0.5-0.3-1-0.5-1.3c-0.2-0.4-0.5-0.7-0.9-0.9s-0.8-0.3-1.3-0.3s-0.9,0.1-1.3,0.3
				c-0.3,0.2-0.6,0.5-0.8,0.8c-0.2,0.4-0.4,0.8-0.5,1.3s-0.1,1.1-0.1,1.7c0,0.6,0.1,1.2,0.2,1.7c0.1,0.5,0.3,1,0.5,1.3
				c0.2,0.4,0.5,0.7,0.9,0.9C167.1,55.3,167.6,55.4,168.1,55.4z"/>
			<path class="st0" d="M180.8,58.1c-1.2,0-2.2-0.1-2.9-0.4c-0.8-0.3-1.3-0.6-1.8-0.8l1.2-2.5c0.1,0.1,0.3,0.2,0.5,0.3
				s0.5,0.2,0.8,0.4c0.3,0.1,0.6,0.2,0.9,0.3c0.3,0.1,0.7,0.1,1,0.1c0.7,0,1.2-0.1,1.6-0.3c0.4-0.2,0.6-0.5,0.6-0.9
				c0-0.2-0.1-0.4-0.3-0.6c-0.2-0.2-0.4-0.3-0.7-0.4c-0.3-0.1-0.6-0.3-1.1-0.4c-0.4-0.2-0.8-0.4-1.3-0.6c-0.9-0.4-1.6-0.9-2.2-1.5
				c-0.5-0.6-0.8-1.4-0.8-2.4c0-1.2,0.4-2.2,1.3-2.9c0.9-0.7,2.1-1.1,3.6-1.1c1.1,0,2,0.1,2.7,0.4c0.7,0.3,1.2,0.5,1.5,0.7l-1.3,2.5
				c-0.3-0.2-0.6-0.3-1.1-0.5s-1.1-0.3-1.7-0.3c-0.6,0-1.1,0.1-1.4,0.3c-0.3,0.2-0.4,0.5-0.4,0.8c0,0.2,0.1,0.4,0.2,0.6
				c0.1,0.2,0.3,0.3,0.6,0.4c0.2,0.1,0.5,0.2,0.9,0.4c0.3,0.1,0.7,0.2,1.1,0.4c0.5,0.2,1,0.4,1.4,0.7c0.4,0.2,0.8,0.5,1.1,0.8
				s0.6,0.7,0.7,1.1c0.2,0.4,0.3,0.9,0.3,1.4c0,1.4-0.5,2.4-1.4,3.1C183.7,57.7,182.5,58.1,180.8,58.1z"/>
		</g>
		<g>
			<path class="st0" d="M218.4,58.1c-0.7,0-1.4-0.1-2-0.2c-0.6-0.1-1.1-0.3-1.6-0.5s-0.9-0.4-1.2-0.6c-0.3-0.2-0.6-0.4-0.8-0.6
				l1.6-2.6c0.1,0.1,0.3,0.2,0.5,0.3c0.2,0.2,0.5,0.3,0.8,0.4c0.3,0.1,0.7,0.3,1.1,0.4c0.4,0.1,0.9,0.2,1.4,0.2
				c0.9,0,1.6-0.2,2.1-0.6c0.5-0.4,0.7-0.9,0.7-1.5c0-0.4-0.1-0.7-0.3-1s-0.5-0.5-0.9-0.7s-0.8-0.4-1.3-0.6c-0.5-0.2-1-0.4-1.5-0.7
				c-0.6-0.3-1.1-0.6-1.5-0.9c-0.5-0.3-0.9-0.7-1.2-1.1c-0.3-0.4-0.6-0.9-0.8-1.4s-0.3-1.2-0.3-1.9c0-0.8,0.2-1.5,0.5-2.1
				s0.7-1.1,1.2-1.6c0.5-0.4,1.1-0.8,1.8-1s1.5-0.4,2.3-0.4c0.7,0,1.4,0.1,2,0.2c0.6,0.1,1.1,0.2,1.5,0.4s0.8,0.3,1.1,0.5
				s0.5,0.3,0.7,0.5l-1.5,2.7c-0.2-0.1-0.4-0.2-0.6-0.4c-0.2-0.1-0.5-0.2-0.8-0.4c-0.3-0.1-0.6-0.2-1-0.3s-0.7-0.1-1.1-0.1
				c-0.7,0-1.3,0.2-1.8,0.5c-0.4,0.3-0.6,0.8-0.6,1.4c0,0.4,0.1,0.7,0.3,0.9s0.4,0.5,0.7,0.7s0.6,0.4,1.1,0.6
				c0.4,0.2,0.8,0.4,1.3,0.6c0.6,0.3,1.2,0.6,1.7,0.9c0.6,0.3,1,0.7,1.5,1.1c0.4,0.4,0.8,0.9,1,1.5c0.3,0.6,0.4,1.3,0.4,2.1
				s-0.1,1.5-0.4,2.2c-0.3,0.7-0.7,1.2-1.3,1.7s-1.2,0.8-2,1.1C220.3,58,219.4,58.1,218.4,58.1z"/>
			<path class="st0" d="M233.6,58.1c-1.1,0-2.1-0.2-2.9-0.5c-0.9-0.3-1.6-0.8-2.2-1.4c-0.6-0.6-1-1.3-1.3-2.2s-0.5-1.8-0.5-2.8
				s0.2-2,0.5-2.8s0.8-1.6,1.4-2.1c0.6-0.6,1.3-1.1,2.1-1.4c0.8-0.3,1.6-0.5,2.6-0.5c1.9,0,3.3,0.6,4.3,1.7c1,1.1,1.5,2.7,1.5,4.8
				c0,0.2,0,0.4,0,0.6c0,0.2,0,0.4,0,0.6h-8.3c0.1,1,0.4,1.8,0.9,2.4c0.5,0.6,1.3,1,2.4,1c0.9,0,1.6-0.1,2.1-0.3s1-0.4,1.3-0.6
				l1.2,2.3c-0.2,0.1-0.5,0.3-0.8,0.4c-0.3,0.1-0.6,0.3-1,0.4c-0.4,0.1-0.8,0.2-1.4,0.3C234.8,58,234.2,58.1,233.6,58.1z
				 M235.4,49.6c0-0.4,0-0.7-0.1-1.1c-0.1-0.3-0.2-0.6-0.4-0.9c-0.2-0.2-0.4-0.4-0.7-0.6c-0.3-0.1-0.6-0.2-1.1-0.2
				c-0.8,0-1.4,0.2-1.8,0.7c-0.4,0.5-0.7,1.1-0.9,2L235.4,49.6L235.4,49.6z"/>
			<path class="st0" d="M246.5,64.2c-1.8,0-3.2-0.3-4.2-0.9c-1-0.6-1.5-1.5-1.5-2.6c0-0.7,0.2-1.4,0.6-1.9s0.9-1,1.6-1.3
				c-0.4-0.2-0.6-0.5-0.8-0.8c-0.2-0.3-0.3-0.7-0.3-1.2c0-0.6,0.1-1.1,0.4-1.5s0.6-0.7,1-1c-0.8-0.4-1.3-1-1.7-1.6
				c-0.4-0.7-0.6-1.4-0.6-2.3c0-0.7,0.1-1.3,0.4-1.9c0.3-0.6,0.7-1.1,1.1-1.5c0.5-0.4,1.1-0.7,1.8-1c0.7-0.2,1.5-0.3,2.5-0.3
				c0.9,0,1.7,0.1,2.3,0.3h4.8V47h-1.8c0.4,0.6,0.5,1.3,0.5,2.1c0,1.4-0.5,2.5-1.4,3.4c-1,0.9-2.4,1.3-4.2,1.3c-0.3,0-0.5,0-0.8,0
				s-0.5,0-0.8-0.1c-0.3,0.2-0.5,0.4-0.5,0.8c0,0.4,0.2,0.6,0.6,0.7c0.4,0.1,1.1,0.2,2,0.2c0.7,0,1.4,0.1,2.1,0.1
				c0.7,0.1,1.4,0.2,2,0.5s1.1,0.6,1.5,1.2c0.4,0.5,0.6,1.3,0.6,2.3c0,0.7-0.2,1.3-0.5,1.9c-0.3,0.6-0.8,1.1-1.5,1.5
				c-0.6,0.4-1.4,0.8-2.3,1C248.5,64.1,247.5,64.2,246.5,64.2z M246.7,61.8c1.1,0,1.9-0.2,2.5-0.6c0.6-0.4,0.9-0.8,0.9-1.4
				c0-0.3-0.1-0.6-0.2-0.8c-0.2-0.2-0.4-0.3-0.6-0.4c-0.3-0.1-0.6-0.1-1-0.2c-0.4,0-0.8-0.1-1.3-0.1c-0.3,0-0.6-0.1-0.9-0.1
				s-0.6-0.1-0.9-0.1c-0.7,0.5-1,1.1-1,1.8c0,0.5,0.2,0.9,0.6,1.3C245.1,61.6,245.8,61.8,246.7,61.8z M246.7,51.5
				c0.8,0,1.3-0.2,1.8-0.6c0.4-0.4,0.6-1,0.6-1.8s-0.2-1.4-0.6-1.8c-0.4-0.4-1-0.6-1.8-0.6s-1.3,0.2-1.8,0.6c-0.4,0.4-0.6,1-0.6,1.8
				s0.2,1.3,0.6,1.8C245.4,51.3,246,51.5,246.7,51.5z"/>
			<path class="st0" d="M259.9,58.1c-0.7,0-1.3-0.1-1.8-0.3s-0.9-0.5-1.2-0.9c-0.3-0.4-0.5-0.8-0.7-1.4c-0.1-0.5-0.2-1.1-0.2-1.7
				v-9.2h3.6v8.5c0,0.7,0.1,1.2,0.4,1.5s0.7,0.5,1.4,0.5c0.3,0,0.7-0.1,1-0.2c0.3-0.1,0.6-0.3,0.8-0.5c0.2-0.2,0.4-0.4,0.6-0.5
				c0.2-0.2,0.3-0.3,0.4-0.4v-8.8h3.6V54c0,0.8,0,1.6,0.1,2.2c0.1,0.6,0.2,1.2,0.2,1.6h-3.5c-0.1-0.2-0.1-0.4-0.2-0.8
				c-0.1-0.4-0.1-0.7-0.1-0.9c-0.2,0.2-0.4,0.5-0.6,0.7c-0.3,0.3-0.6,0.5-0.9,0.7c-0.4,0.2-0.8,0.4-1.2,0.5
				C260.9,58,260.5,58.1,259.9,58.1z"/>
			<path class="st0" d="M271.1,44.6h3.6v1.8c0.1-0.2,0.3-0.5,0.5-0.7c0.2-0.3,0.4-0.5,0.7-0.7c0.3-0.2,0.6-0.4,0.9-0.5
				c0.4-0.1,0.7-0.2,1.1-0.2c0.5,0,0.9,0,1.1,0.1c0.3,0.1,0.5,0.2,0.6,0.2l-0.9,3.1c-0.1-0.1-0.3-0.1-0.5-0.2
				c-0.2-0.1-0.5-0.1-0.9-0.1s-0.8,0.1-1.1,0.2c-0.3,0.2-0.6,0.3-0.8,0.6c-0.2,0.2-0.4,0.4-0.6,0.7c-0.2,0.2-0.3,0.4-0.4,0.6v8.3
				h-3.6V44.6H271.1z"/>
			<path class="st0" d="M287,58.1c-1.2,0-2.1-0.2-3-0.6c-0.8-0.4-1.5-0.9-2.1-1.6c-0.5-0.6-0.9-1.4-1.2-2.2
				c-0.3-0.8-0.4-1.6-0.4-2.5c0-0.8,0.1-1.7,0.4-2.5s0.6-1.6,1.2-2.2c0.5-0.7,1.2-1.2,2-1.6c0.8-0.4,1.8-0.6,3-0.6s2.1,0.2,3,0.6
				c0.8,0.4,1.5,0.9,2.1,1.6c0.5,0.6,1,1.4,1.2,2.2c0.3,0.8,0.4,1.6,0.4,2.5c0,0.8-0.1,1.7-0.4,2.5s-0.7,1.6-1.2,2.2
				c-0.5,0.7-1.2,1.2-2.1,1.6C289.1,57.9,288.2,58.1,287,58.1z M287.1,55.4c1,0,1.7-0.4,2.2-1.1c0.4-0.8,0.6-1.8,0.6-3
				c0-0.6-0.1-1.2-0.2-1.7s-0.3-1-0.5-1.3c-0.2-0.4-0.5-0.7-0.9-0.9s-0.8-0.3-1.3-0.3s-0.9,0.1-1.3,0.3c-0.3,0.2-0.6,0.5-0.8,0.8
				c-0.2,0.4-0.4,0.8-0.5,1.3s-0.1,1.1-0.1,1.7c0,0.6,0.1,1.2,0.2,1.7s0.3,1,0.5,1.3c0.2,0.4,0.5,0.7,0.9,0.9
				C286.1,55.3,286.6,55.4,287.1,55.4z"/>
			<path class="st0" d="M299.8,58.1c-1.2,0-2.2-0.1-2.9-0.4c-0.8-0.3-1.3-0.6-1.8-0.8l1.2-2.5c0.1,0.1,0.3,0.2,0.5,0.3
				s0.5,0.2,0.8,0.4c0.3,0.1,0.6,0.2,0.9,0.3s0.7,0.1,1,0.1c0.7,0,1.2-0.1,1.6-0.3s0.6-0.5,0.6-0.9c0-0.2-0.1-0.4-0.3-0.6
				c-0.2-0.2-0.4-0.3-0.7-0.4c-0.3-0.1-0.6-0.3-1.1-0.4c-0.4-0.2-0.8-0.4-1.3-0.6c-0.9-0.4-1.6-0.9-2.2-1.5
				c-0.5-0.6-0.8-1.4-0.8-2.4c0-1.2,0.4-2.2,1.3-2.9s2.1-1.1,3.6-1.1c1.1,0,2,0.1,2.7,0.4c0.7,0.3,1.2,0.5,1.5,0.7l-1.3,2.5
				c-0.3-0.2-0.6-0.3-1.1-0.5s-1.1-0.3-1.7-0.3s-1.1,0.1-1.4,0.3s-0.4,0.5-0.4,0.8c0,0.2,0.1,0.4,0.2,0.6c0.1,0.2,0.3,0.3,0.6,0.4
				c0.2,0.1,0.5,0.2,0.9,0.4c0.3,0.1,0.7,0.2,1.1,0.4c0.5,0.2,1,0.4,1.4,0.7c0.4,0.2,0.8,0.5,1.1,0.8c0.3,0.3,0.6,0.7,0.7,1.1
				c0.2,0.4,0.3,0.9,0.3,1.4c0,1.4-0.5,2.4-1.4,3.1C302.7,57.7,301.5,58.1,299.8,58.1z"/>
		</g>
		<g>
			<path class="st0" d="M110.8,68.3h1.1c0.2,0,0.4,0,0.6,0.1c0.2,0.1,0.4,0.1,0.5,0.2s0.3,0.2,0.3,0.4c0.1,0.2,0.1,0.4,0.1,0.6
				c0,0.4-0.1,0.8-0.4,1c-0.3,0.2-0.7,0.4-1.2,0.4h-0.5v1.8h-0.5L110.8,68.3L110.8,68.3z M111.8,70.5c0.4,0,0.7-0.1,0.9-0.2
				c0.2-0.2,0.3-0.4,0.3-0.7c0-0.1,0-0.2-0.1-0.3c0-0.1-0.1-0.2-0.2-0.3c-0.1-0.1-0.2-0.1-0.3-0.2c-0.1,0-0.3-0.1-0.5-0.1h-0.5v1.8
				C111.4,70.5,111.8,70.5,111.8,70.5z"/>
			<path class="st0" d="M115.4,68.3h1.2c0.5,0,0.8,0.1,1.1,0.3c0.3,0.2,0.4,0.5,0.4,0.9c0,0.2,0,0.4-0.1,0.5s-0.2,0.3-0.3,0.4
				s-0.2,0.2-0.4,0.2c-0.2,0.1-0.3,0.1-0.5,0.1l0,0c0,0,0.1,0.1,0.2,0.2c0.1,0.1,0.2,0.2,0.3,0.4l1.1,1.5h-0.6l-0.9-1.3
				c-0.1-0.2-0.2-0.3-0.3-0.4s-0.2-0.2-0.2-0.2c-0.1-0.1-0.1-0.1-0.2-0.1c-0.1,0-0.1,0-0.2,0h-0.1v2.1h-0.5V68.3z M116.6,70.3
				c0.3,0,0.6-0.1,0.7-0.2c0.2-0.1,0.2-0.3,0.2-0.6c0-0.3-0.1-0.4-0.2-0.6c-0.2-0.1-0.4-0.2-0.8-0.2h-0.6v1.5L116.6,70.3L116.6,70.3
				z"/>
			<path class="st0" d="M122.1,72.8c-0.3,0-0.7-0.1-0.9-0.2c-0.3-0.1-0.5-0.3-0.7-0.5s-0.3-0.5-0.4-0.7c-0.1-0.3-0.2-0.6-0.2-0.9
				s0.1-0.6,0.1-0.9c0.1-0.3,0.2-0.5,0.4-0.7s0.4-0.4,0.7-0.5s0.6-0.2,0.9-0.2c0.3,0,0.7,0.1,0.9,0.2c0.3,0.1,0.5,0.3,0.7,0.5
				s0.3,0.5,0.4,0.7c0.1,0.3,0.2,0.6,0.2,0.9s-0.1,0.6-0.1,0.9c-0.1,0.3-0.2,0.5-0.4,0.7s-0.4,0.4-0.7,0.5
				C122.8,72.8,122.5,72.8,122.1,72.8z M122.1,72.4c0.3,0,0.5-0.1,0.7-0.2s0.4-0.2,0.5-0.4c0.1-0.2,0.2-0.4,0.3-0.6s0.1-0.5,0.1-0.7
				c0-0.3,0-0.5-0.1-0.7s-0.2-0.4-0.3-0.6s-0.3-0.3-0.5-0.4s-0.4-0.2-0.7-0.2s-0.5,0-0.7,0.2c-0.2,0.1-0.4,0.2-0.5,0.4
				c-0.1,0.2-0.2,0.4-0.3,0.6s-0.1,0.5-0.1,0.7c0,0.3,0,0.5,0.1,0.7s0.2,0.4,0.3,0.6s0.3,0.3,0.5,0.4S121.8,72.4,122.1,72.4z"/>
			<path class="st0" d="M128.3,72.8c-0.4,0-0.7-0.1-0.9-0.2c-0.3-0.1-0.5-0.3-0.7-0.5s-0.3-0.5-0.4-0.7c-0.1-0.3-0.1-0.6-0.1-0.9
				s0-0.6,0.2-0.9c0.1-0.3,0.2-0.5,0.4-0.7s0.4-0.4,0.7-0.5s0.6-0.2,1-0.2c0.3,0,0.6,0,0.8,0.1s0.4,0.2,0.6,0.3l-0.3,0.4
				c-0.2-0.1-0.4-0.2-0.5-0.3c-0.2-0.1-0.4-0.1-0.6-0.1c-0.3,0-0.5,0.1-0.8,0.2c-0.2,0.1-0.4,0.2-0.5,0.4c-0.1,0.2-0.2,0.4-0.3,0.6
				s-0.1,0.5-0.1,0.7s0,0.5,0.1,0.7s0.2,0.4,0.3,0.6s0.3,0.3,0.5,0.4s0.5,0.2,0.8,0.2c0.2,0,0.5,0,0.7-0.1c0.2,0,0.3-0.1,0.5-0.2
				v-1.3h-1v-0.4h1.5v2c-0.2,0.1-0.4,0.3-0.7,0.3C128.9,72.8,128.6,72.8,128.3,72.8z"/>
			<path class="st0" d="M132.1,68.3h1.2c0.5,0,0.8,0.1,1.1,0.3c0.3,0.2,0.4,0.5,0.4,0.9c0,0.2,0,0.4-0.1,0.5s-0.2,0.3-0.3,0.4
				s-0.2,0.2-0.4,0.2c-0.2,0.1-0.3,0.1-0.5,0.1l0,0c0,0,0.1,0.1,0.2,0.2c0.1,0.1,0.2,0.2,0.3,0.4l1.1,1.5h-0.6l-0.9-1.3
				c-0.1-0.2-0.2-0.3-0.3-0.4s-0.2-0.2-0.2-0.2c-0.1-0.1-0.1-0.1-0.2-0.1c-0.1,0-0.1,0-0.2,0h-0.1v2.1h-0.5V68.3z M133.3,70.3
				c0.3,0,0.6-0.1,0.7-0.2c0.2-0.1,0.2-0.3,0.2-0.6c0-0.3-0.1-0.4-0.2-0.6c-0.2-0.1-0.4-0.2-0.8-0.2h-0.6v1.5L133.3,70.3L133.3,70.3
				z"/>
			<path class="st0" d="M138.2,68.3h0.5l1.7,4.5h-0.6l-0.4-1.1h-2l-0.4,1.1h-0.5L138.2,68.3z M139.2,71.2l-0.6-1.5
				c-0.1-0.2-0.1-0.3-0.2-0.5c0-0.1-0.1-0.2-0.1-0.3l0,0c0,0.1-0.1,0.2-0.1,0.3c0,0.1-0.1,0.3-0.2,0.4l-0.6,1.5L139.2,71.2
				L139.2,71.2z"/>
			<path class="st0" d="M142.5,68.3h0.5l1.1,3.1c0.1,0.2,0.1,0.3,0.2,0.5c0,0.1,0.1,0.2,0.1,0.4l0,0c0-0.1,0.1-0.2,0.1-0.4
				c0-0.1,0.1-0.3,0.2-0.5l1.1-3.1h0.5l0.6,4.5h-0.5l-0.4-2.9c0-0.2,0-0.3,0-0.4s0-0.2,0-0.2l0,0c0,0.1-0.1,0.2-0.1,0.3
				c0,0.1-0.1,0.2-0.1,0.4l-1.1,2.9h-0.5l-1.1-2.9c-0.1-0.1-0.1-0.3-0.1-0.4s-0.1-0.2-0.1-0.3l0,0c0,0.1,0,0.2,0,0.3
				c0,0.1,0,0.2,0,0.4l-0.4,2.9H142L142.5,68.3z"/>
			<path class="st0" d="M150.1,68.3h0.5l1.7,4.5h-0.6l-0.4-1.1h-2l-0.4,1.1h-0.5L150.1,68.3z M151.2,71.2l-0.6-1.5
				c-0.1-0.2-0.1-0.3-0.2-0.5c0-0.1-0.1-0.2-0.1-0.3l0,0c0,0.1-0.1,0.2-0.1,0.3c0,0.1-0.1,0.3-0.2,0.4l-0.6,1.5L151.2,71.2
				L151.2,71.2z"/>
			<path class="st0" d="M156.7,68.3h1c0.4,0,0.8,0.1,1.1,0.2s0.6,0.3,0.8,0.4c0.2,0.2,0.4,0.4,0.5,0.7c0.1,0.3,0.1,0.6,0.1,0.9
				s0,0.6-0.2,0.9c-0.1,0.3-0.3,0.5-0.5,0.7s-0.5,0.4-0.8,0.5s-0.7,0.2-1.2,0.2h-1v-4.5H156.7z M157.7,72.3c0.7,0,1.1-0.2,1.5-0.5
				c0.3-0.3,0.5-0.8,0.5-1.4s-0.2-1.1-0.5-1.3c-0.3-0.3-0.8-0.4-1.5-0.4h-0.5v3.6C157.2,72.3,157.7,72.3,157.7,72.3z"/>
			<path class="st0" d="M162.3,68.3h2.3v0.4h-1.8v1.4h1.6v0.4h-1.6v1.7h1.8v0.4h-2.3V68.3z"/>
			<path class="st0" d="M169.2,68.3h2.3v0.4h-1.8v1.4h1.6v0.4h-1.6v2.2h-0.5V68.3z"/>
			<path class="st0" d="M175.4,72.8c-0.3,0-0.7-0.1-0.9-0.2c-0.3-0.1-0.5-0.3-0.7-0.5s-0.3-0.5-0.4-0.7c-0.1-0.3-0.2-0.6-0.2-0.9
				s0-0.6,0.1-0.9s0.2-0.5,0.4-0.7s0.4-0.4,0.7-0.5s0.6-0.2,0.9-0.2c0.3,0,0.7,0.1,0.9,0.2c0.3,0.1,0.5,0.3,0.7,0.5s0.3,0.5,0.4,0.7
				c0.1,0.3,0.2,0.6,0.2,0.9s-0.1,0.6-0.1,0.9c-0.1,0.3-0.2,0.5-0.4,0.7s-0.4,0.4-0.7,0.5C176,72.8,175.7,72.8,175.4,72.8z
				 M175.4,72.4c0.3,0,0.5-0.1,0.7-0.2s0.4-0.2,0.5-0.4c0.1-0.2,0.2-0.4,0.3-0.6s0.1-0.5,0.1-0.7c0-0.3,0-0.5-0.1-0.7
				s-0.2-0.4-0.3-0.6s-0.3-0.3-0.5-0.4s-0.4-0.2-0.7-0.2s-0.5,0-0.7,0.2c-0.2,0.1-0.4,0.2-0.5,0.4c-0.1,0.2-0.2,0.4-0.3,0.6
				s-0.1,0.5-0.1,0.7c0,0.3,0,0.5,0.1,0.7s0.2,0.4,0.3,0.6s0.3,0.3,0.5,0.4S175.1,72.4,175.4,72.4z"/>
			<path class="st0" d="M179.6,68.3h1.2c0.5,0,0.8,0.1,1.1,0.3c0.3,0.2,0.4,0.5,0.4,0.9c0,0.2,0,0.4-0.1,0.5s-0.2,0.3-0.3,0.4
				s-0.2,0.2-0.4,0.2c-0.2,0.1-0.3,0.1-0.5,0.1l0,0c0,0,0.1,0.1,0.2,0.2c0.1,0.1,0.2,0.2,0.3,0.4l1.1,1.5H182l-0.9-1.3
				c-0.1-0.2-0.2-0.3-0.3-0.4s-0.2-0.2-0.2-0.2c-0.1-0.1-0.1-0.1-0.2-0.1c-0.1,0-0.1,0-0.2,0h-0.1v2.1h-0.5V68.3z M180.8,70.3
				c0.3,0,0.6-0.1,0.7-0.2c0.2-0.1,0.2-0.3,0.2-0.6c0-0.3-0.1-0.4-0.2-0.6c-0.2-0.1-0.4-0.2-0.8-0.2h-0.6v1.5L180.8,70.3L180.8,70.3
				z"/>
			<path class="st0" d="M184.8,68.3h0.5l1.1,3.1c0.1,0.2,0.1,0.3,0.2,0.5c0,0.1,0.1,0.2,0.1,0.4l0,0c0-0.1,0.1-0.2,0.1-0.4
				c0-0.1,0.1-0.3,0.2-0.5l1.1-3.1h0.5l0.6,4.5h-0.5l-0.4-2.9c0-0.2,0-0.3,0-0.4s0-0.2,0-0.2l0,0c0,0.1,0,0.2-0.1,0.3
				c0,0.1-0.1,0.2-0.1,0.4l-1.1,2.9h-0.5l-1.1-2.9c-0.1-0.1-0.1-0.3-0.1-0.4s-0.1-0.2-0.1-0.3l0,0c0,0.1,0,0.2,0,0.3
				c0,0.1,0,0.2,0,0.4l-0.4,2.9h-0.5L184.8,68.3z"/>
			<path class="st0" d="M192.4,68.3h0.5l1.7,4.5H194l-0.4-1.1h-2l-0.4,1.1h-0.5L192.4,68.3z M193.5,71.2l-0.6-1.5
				c-0.1-0.2-0.1-0.3-0.2-0.5c0-0.1-0.1-0.2-0.1-0.3l0,0c0,0.1-0.1,0.2-0.1,0.3c0,0.1-0.1,0.3-0.2,0.4l-0.6,1.5L193.5,71.2
				L193.5,71.2z"/>
			<path class="st0" d="M198.2,72.8c-0.3,0-0.7-0.1-0.9-0.2c-0.3-0.1-0.5-0.3-0.7-0.5s-0.3-0.5-0.4-0.7c-0.1-0.3-0.1-0.6-0.1-0.9
				s0.1-0.6,0.1-0.9c0.1-0.3,0.2-0.5,0.4-0.7s0.4-0.4,0.7-0.5s0.6-0.2,0.9-0.2c0.3,0,0.5,0,0.7,0.1s0.4,0.1,0.5,0.2l-0.3,0.4
				c-0.1-0.1-0.3-0.2-0.4-0.2c-0.2-0.1-0.4-0.1-0.6-0.1c-0.3,0-0.5,0.1-0.7,0.2s-0.4,0.2-0.5,0.4c-0.1,0.2-0.2,0.4-0.3,0.6
				s-0.1,0.5-0.1,0.7s0,0.5,0.1,0.7s0.2,0.4,0.3,0.6s0.3,0.3,0.5,0.4s0.4,0.2,0.7,0.2c0.2,0,0.5,0,0.6-0.1c0.2-0.1,0.3-0.2,0.5-0.3
				l0.2,0.4c-0.1,0.1-0.1,0.1-0.2,0.2c-0.1,0.1-0.2,0.1-0.3,0.1s-0.2,0.1-0.4,0.1C198.5,72.8,198.3,72.8,198.2,72.8z"/>
			<path class="st0" d="M201.5,68.3h0.5v4.5h-0.5V68.3z"/>
			<path class="st0" d="M206.3,72.8c-0.3,0-0.7-0.1-0.9-0.2c-0.3-0.1-0.5-0.3-0.7-0.5s-0.3-0.5-0.4-0.7c-0.1-0.3-0.2-0.6-0.2-0.9
				s0.1-0.6,0.1-0.9c0.1-0.3,0.2-0.5,0.4-0.7s0.4-0.4,0.7-0.5s0.6-0.2,0.9-0.2c0.3,0,0.7,0.1,0.9,0.2c0.3,0.1,0.5,0.3,0.7,0.5
				s0.3,0.5,0.4,0.7c0.1,0.3,0.2,0.6,0.2,0.9s0,0.6-0.1,0.9s-0.2,0.5-0.4,0.7s-0.4,0.4-0.7,0.5C206.9,72.8,206.6,72.8,206.3,72.8z
				 M206.2,72.4c0.3,0,0.5-0.1,0.7-0.2s0.4-0.2,0.5-0.4c0.1-0.2,0.2-0.4,0.3-0.6s0.1-0.5,0.1-0.7c0-0.3,0-0.5-0.1-0.7
				s-0.2-0.4-0.3-0.6s-0.3-0.3-0.5-0.4s-0.4-0.2-0.7-0.2s-0.5,0-0.7,0.2c-0.2,0.1-0.4,0.2-0.5,0.4c-0.1,0.2-0.2,0.4-0.3,0.6
				s-0.1,0.5-0.1,0.7c0,0.3,0,0.5,0.1,0.7s0.2,0.4,0.3,0.6s0.3,0.3,0.5,0.4S206,72.4,206.2,72.4z M206.6,67.1h0.7l-0.9,0.8H206
				L206.6,67.1z"/>
			<path class="st0" d="M210.5,68.3h0.5l2.1,3c0.1,0.2,0.2,0.3,0.3,0.4s0.1,0.2,0.2,0.3l0,0c0,0,0-0.1,0-0.2s0-0.2,0-0.4v-3.1h0.5
				v4.5h-0.5l-2.2-3.2c-0.1-0.1-0.1-0.2-0.2-0.3c-0.1-0.1-0.1-0.2-0.2-0.3l0,0c0,0,0,0.1,0,0.2s0,0.2,0,0.3v3.3h-0.5L210.5,68.3
				L210.5,68.3z"/>
			<path class="st0" d="M218.8,68.3h2.3v0.4h-1.8v1.4h1.6v0.4h-1.6v1.7h1.8v0.4h-2.4L218.8,68.3L218.8,68.3z"/>
			<path class="st0" d="M222.7,74c-0.1,0-0.2,0-0.2,0c-0.1,0-0.1,0-0.1,0l0.1-0.5h0.1c0,0,0.1,0,0.2,0c0.2,0,0.3-0.1,0.4-0.2
				c0.1-0.1,0.1-0.3,0.1-0.6v-4.5h0.5v4.6c0,0.4-0.1,0.7-0.3,0.9C223.3,73.9,223.1,74,222.7,74z"/>
			<path class="st0" d="M226,68.3h2.3v0.4h-1.8v1.4h1.6v0.4h-1.6v1.7h1.8v0.4H226V68.3z"/>
			<path class="st0" d="M232.3,72.8c-0.4,0-0.7-0.1-0.9-0.2c-0.3-0.1-0.5-0.3-0.7-0.5s-0.3-0.5-0.4-0.7c-0.1-0.3-0.1-0.6-0.1-0.9
				s0-0.6,0.1-0.9s0.2-0.5,0.4-0.7s0.4-0.4,0.7-0.5s0.6-0.2,0.9-0.2c0.3,0,0.5,0,0.7,0.1s0.4,0.1,0.5,0.2l-0.3,0.4
				c-0.1-0.1-0.3-0.2-0.4-0.2c-0.2-0.1-0.4-0.1-0.6-0.1c-0.3,0-0.5,0.1-0.7,0.2s-0.4,0.2-0.5,0.4c-0.1,0.2-0.2,0.4-0.3,0.6
				s-0.1,0.5-0.1,0.7s0,0.5,0.1,0.7s0.2,0.4,0.3,0.6s0.3,0.3,0.5,0.4s0.4,0.2,0.7,0.2c0.2,0,0.5,0,0.6-0.1c0.2-0.1,0.3-0.2,0.5-0.3
				l0.2,0.4c-0.1,0.1-0.1,0.1-0.2,0.2c-0.1,0.1-0.2,0.1-0.3,0.1s-0.2,0.1-0.4,0.1C232.6,72.8,232.5,72.8,232.3,72.8z"/>
			<path class="st0" d="M237.2,72.8c-0.3,0-0.6,0-0.8-0.1s-0.4-0.2-0.5-0.4c-0.1-0.2-0.2-0.3-0.3-0.6c-0.1-0.2-0.1-0.5-0.1-0.7v-2.8
				h0.5V71c0,0.5,0.1,0.8,0.3,1s0.5,0.3,0.9,0.3s0.7-0.1,0.9-0.4c0.2-0.2,0.3-0.5,0.3-0.9v-2.8h0.5V71c0,0.3,0,0.5-0.1,0.7
				s-0.2,0.4-0.3,0.6s-0.3,0.3-0.5,0.4C237.8,72.8,237.5,72.8,237.2,72.8z"/>
			<path class="st0" d="M241.9,68.7h-1.2v-0.4h3.1v0.4h-1.3v4H242v-4H241.9z"/>
			<path class="st0" d="M245.6,68.3h0.5v4.5h-0.5V68.3z"/>
			<path class="st0" d="M247.9,68.3h0.6l1.2,3.1c0.1,0.2,0.1,0.3,0.2,0.5c0,0.1,0.1,0.2,0.1,0.3l0,0c0-0.1,0.1-0.2,0.1-0.3
				c0-0.1,0.1-0.3,0.2-0.5l1.1-3.1h0.5l-1.7,4.5h-0.5L247.9,68.3z"/>
			<path class="st0" d="M254.4,68.3h0.5l1.7,4.5H256l-0.4-1.1h-2l-0.4,1.1h-0.5L254.4,68.3z M255.4,71.2l-0.6-1.5
				c-0.1-0.2-0.1-0.3-0.2-0.5c0-0.1-0.1-0.2-0.1-0.3l0,0c0,0.1-0.1,0.2-0.1,0.3c0,0.1-0.1,0.3-0.2,0.4l-0.6,1.5L255.4,71.2
				L255.4,71.2z"/>
		</g>
	</g>
	<path class="st0" d="M33.3,29.5c0,7.2,12.2,15.1,12.2,23.3c0,0,0,0.8-0.3,1.6c11.4,2.5,19.5,8,19.5,14.6c0,8.8-14.4,16.1-32.3,16.1
		C14.2,85.1,0,77.9,0,69.3c0-6.6,8.8-11.9,19.3-14.7c0,3.6,12,15.1,12.3,19.7c0,0.5,0.1,1,0,1.5c2.6-1.4,2.6-5.6,2.6-5.6
		c0-10.1-11.7-14.5-11.7-24.4c0-3.8,1.8-6.7,3.4-7.5v2.8C26,48.4,38.7,56.4,38.7,63v2.1c2.9-1.1,2.9-6.5,2.9-6.5
		c0-9-11.7-14.1-11.7-24.4c0-3.8,1.8-6.7,3.4-7.5L33.3,29.5L33.3,29.5z"/>
</g>
</svg>
