<svg xmlns="http://www.w3.org/2000/svg" viewBox="0 0 119.71 20.77"><defs><style>.cls-1{fill:#fff;}.cls-2{fill:#314178;}.cls-3{fill:#b4353b;}</style></defs><title>Recurso 6</title><g id="Capa_2" data-name="Capa 2"><g id="Capa_1-2" data-name="Capa 1"><rect class="cls-1" x="57.89" y="0.64" width="61.08" height="19.19"/><polygon class="cls-2" points="66.64 20.77 0 20.77 0 0 59.13 0 66.64 20.77"/><path class="cls-2" d="M118.22,1.49V19.28H64.29L59,1.49ZM119.71,0H57l6.17,20.77h56.53Z"/><path class="cls-1" d="M4.82,16.18V4.27h5.57a3.71,3.71,0,0,1,4,3.84,3.72,3.72,0,0,1-4,3.82h-3v4.25Zm7-8.06A1.61,1.61,0,0,0,10,6.51H7.35V9.7H10A1.61,1.61,0,0,0,11.8,8.11"/><polygon class="cls-1" points="15.97 16.18 15.97 4.28 24.4 4.28 24.4 6.51 18.51 6.51 18.51 9 24.27 9 24.27 11.23 18.51 11.23 18.51 13.95 24.4 13.95 24.4 16.18 15.97 16.18"/><polygon class="cls-1" points="34.58 16.18 28.91 8.41 28.91 16.18 26.38 16.18 26.38 4.28 28.98 4.28 34.49 11.75 34.49 4.28 37.03 4.28 37.03 16.18 34.58 16.18"/><polygon class="cls-1" points="42.13 16.18 42.13 6.51 38.65 6.51 38.65 4.28 48.15 4.28 48.15 6.51 44.68 6.51 44.68 16.18 42.13 16.18"/><path class="cls-1" d="M53.55,6.81h0l-.88-2.52H52l-4.59,11.9h2.87l3.3-9.37Z"/><polygon class="cls-3" points="55.14 4.28 52.67 4.28 54.4 9.21 56.85 16.18 59.73 16.18 55.14 4.28"/><path class="cls-2" d="M72.46,5.82h-.14a1.41,1.41,0,0,0-1.21-1,.74.74,0,0,0-.8.66.76.76,0,0,0,.24.52c.24.24,1.36.83,1.66,1.13a1.52,1.52,0,0,1,.53,1.13,1.46,1.46,0,0,1-1.57,1.42A8.79,8.79,0,0,1,70,9.48a.27.27,0,0,0-.25.16h-.14V8.17h.14A1.35,1.35,0,0,0,71,9.4c.53,0,.9-.29.9-.69a.81.81,0,0,0-.25-.56C71.31,7.77,70.45,7.41,70,7a1.44,1.44,0,0,1,1.1-2.46,2.29,2.29,0,0,1,.5.07,2.09,2.09,0,0,0,.42.07.38.38,0,0,0,.25-.13h.14Z"/><path class="cls-2" d="M76.75,7.86h-.16a.62.62,0,0,0-.68-.63h-.86V8.67c0,.44.18.6.67.6H76c.6,0,.87-.44,1-.91h.14l-.09,1.18H73.36V9.4c.54-.12.62-.28.62-.79V5.48c0-.42-.1-.58-.62-.68V4.66H77V5.75h-.14c-.16-.63-.34-.81-.88-.81h-.94V7h.86c.39,0,.58-.17.68-.61h.16Z"/><path class="cls-2" d="M82.25,9.32a4.6,4.6,0,0,1-1.89.35A2.5,2.5,0,0,1,77.7,7.14a2.56,2.56,0,0,1,2.66-2.6,7.38,7.38,0,0,1,1.39.29.45.45,0,0,0,.35-.17h.15V6H82.1a1.82,1.82,0,0,0-1.68-1.22c-1,0-1.55.9-1.55,2.41s.67,2.17,1.57,2.17c.44,0,.73-.12.73-.52V8.15a.54.54,0,0,0-.5-.6V7.41h2.05v.14c-.36.1-.48.28-.48.73Z"/><path class="cls-2" d="M88.09,8.72c0,.43.11.56.62.68v.14H87V8.9a2,2,0,0,1-1.57.78,1.54,1.54,0,0,1-1.68-1.62V5.49c0-.43-.11-.56-.62-.68V4.66h2.31V4.8c-.53.12-.62.27-.62.73V8.26a.87.87,0,0,0,.92,1A1.76,1.76,0,0,0,87,8.54V5.49c0-.44-.11-.56-.62-.68V4.66h2.31V4.8c-.58.12-.62.33-.62.79Z"/><path class="cls-2" d="M89.77,5.47c0-.41-.09-.57-.62-.67V4.66h2.32c1.35,0,1.89.54,1.89,1.23a1.19,1.19,0,0,1-1,1.16v0c.54.12,1.07,1.69,1.51,2.13a.7.7,0,0,0,.44.21v.14H92.92c-.53-.63-.88-1.73-1.26-2.1-.22-.22-.38-.23-.82-.23v1.5c0,.43.18.62.63.68v.14H89.15V9.4c.4,0,.62-.23.62-.63Zm1.08,1.47c.93.07,1.35-.23,1.35-1a.89.89,0,0,0-1-1h-.33Z"/><path class="cls-2" d="M97.07,9.67a2.52,2.52,0,0,1-2.66-2.56,2.66,2.66,0,0,1,5.32,0,2.52,2.52,0,0,1-2.66,2.56m0-4.86c-1,0-1.49.79-1.49,2.34,0,1.18.38,2.25,1.49,2.25.82,0,1.49-.64,1.49-2.25,0-1.37-.42-2.33-1.49-2.33"/><path class="cls-2" d="M103.26,5.82h-.14a1.41,1.41,0,0,0-1.21-1,.74.74,0,0,0-.8.66.75.75,0,0,0,.24.52c.24.24,1.36.83,1.66,1.13a1.52,1.52,0,0,1,.53,1.13A1.46,1.46,0,0,1,102,9.67a8.75,8.75,0,0,1-1.19-.19.27.27,0,0,0-.25.16h-.14V8.17h.14a1.35,1.35,0,0,0,1.31,1.23c.53,0,.9-.29.9-.69a.81.81,0,0,0-.25-.56c-.38-.38-1.24-.74-1.64-1.14A1.44,1.44,0,0,1,102,4.54a2.29,2.29,0,0,1,.5.07,2.08,2.08,0,0,0,.42.07.38.38,0,0,0,.25-.13h.14Z"/><path class="cls-2" d="M74.17,16.35a4.6,4.6,0,0,1-1.9.35,2.5,2.5,0,0,1-2.65-2.53,2.56,2.56,0,0,1,2.65-2.6,7.35,7.35,0,0,1,1.39.29.45.45,0,0,0,.35-.17h.15v1.37H74a1.82,1.82,0,0,0-1.68-1.22c-1,0-1.55.9-1.55,2.41s.67,2.17,1.57,2.17c.44,0,.74-.12.74-.52v-.73a.54.54,0,0,0-.5-.6v-.14h2.05v.14c-.36.1-.48.28-.48.73Z"/><path class="cls-2" d="M78.49,14.89h-.16a.62.62,0,0,0-.68-.63H76.8V15.7c0,.44.18.6.67.6h.28c.6,0,.87-.44,1-.91h.14l-.09,1.18H75.1v-.14c.54-.12.62-.28.62-.79V12.51c0-.43-.1-.58-.62-.68v-.14h3.66v1.09h-.14c-.16-.63-.34-.81-.89-.81H76.8v2h.86c.39,0,.58-.17.68-.61h.16Z"/><path class="cls-2" d="M83.85,16.63h-.16l-3.51-4v3c0,.53.16.68.72.78v.14H79.2v-.14c.53-.08.65-.37.64-.84V12.32c-.38-.38-.45-.44-.65-.48v-.14h1.47L83.52,15v-2.2c0-.59-.1-.82-.62-.94v-.14h1.65v.14c-.56,0-.71.37-.71.8Z"/><path class="cls-2" d="M88.32,14.89h-.16a.62.62,0,0,0-.68-.63h-.86V15.7c0,.44.18.6.67.6h.28c.6,0,.87-.44,1-.91h.14l-.09,1.18H84.93v-.14c.54-.12.62-.28.62-.79V12.51c0-.43-.1-.58-.62-.68v-.14H88.6v1.09h-.14c-.16-.63-.34-.81-.88-.81h-.94v2h.86c.39,0,.58-.17.68-.61h.16Z"/><path class="cls-2" d="M89.77,12.5c0-.41-.09-.57-.62-.67v-.14h2.32c1.35,0,1.89.54,1.89,1.23a1.19,1.19,0,0,1-1,1.16v0c.54.12,1.07,1.69,1.51,2.13a.7.7,0,0,0,.44.21v.14H92.92c-.53-.63-.88-1.73-1.26-2.1-.22-.22-.38-.23-.82-.23v1.5c0,.44.18.62.63.68v.14H89.15v-.14c.4,0,.62-.23.62-.63ZM90.84,14c.93.07,1.35-.23,1.35-1a.89.89,0,0,0-1-1h-.33Z"/><path class="cls-2" d="M97.66,14.93H95.92l-.24.65c-.18.46-.14.71.39.85v.14H94.49v-.14c.48-.08.71-.54.92-1.11l1.4-3.76h.67L99,15.47c.27.69.48.93.91,1v.14h-2.4v-.14c.61-.12.63-.28.46-.75Zm-.88-2.33-.71,2h1.45Z"/><path class="cls-2" d="M101.95,15.78c0,.4.17.53.77.53s.88-.18,1.27-1h.14L104,16.58h-3.73v-.14c.56-.14.62-.27.62-.79V12.52c0-.43-.11-.56-.62-.68v-.14h2.31v.14c-.48.13-.62.23-.62.65Z"/><path class="cls-2" d="M107.89,14.89h-.16a.62.62,0,0,0-.68-.63h-.86V15.7c0,.44.18.6.67.6h.28c.6,0,.87-.44,1-.91h.14l-.09,1.18H104.5v-.14c.54-.12.62-.28.62-.79V12.51c0-.43-.1-.58-.62-.68v-.14h3.66v1.09H108c-.16-.63-.34-.81-.89-.81h-.94v2h.86c.39,0,.58-.17.68-.61h.16Z"/><path class="cls-2" d="M111.68,12.85h-.14a1.41,1.41,0,0,0-1.21-1,.74.74,0,0,0-.8.66.75.75,0,0,0,.24.52c.24.24,1.36.83,1.66,1.13a1.52,1.52,0,0,1,.54,1.13,1.46,1.46,0,0,1-1.57,1.42,8.87,8.87,0,0,1-1.19-.19.27.27,0,0,0-.25.16h-.14V15.2h.14a1.35,1.35,0,0,0,1.31,1.23c.53,0,.9-.29.9-.69a.81.81,0,0,0-.25-.56c-.38-.38-1.24-.73-1.65-1.14a1.44,1.44,0,0,1,1.1-2.46,2.29,2.29,0,0,1,.5.07,2.07,2.07,0,0,0,.42.07.37.37,0,0,0,.25-.13h.14Z"/></g></g></svg>