<svg xmlns="http://www.w3.org/2000/svg" viewBox="0 0 27.15 37.39"><defs><style>.cls-1{fill:#c57e42;}.cls-1,.cls-2{fill-rule:evenodd;}.cls-2,.cls-3{fill:#465c81;}</style></defs><title>Recurso 2</title><g id="Capa_2" data-name="Capa 2"><g id="Capa_1-2" data-name="Capa 1"><path class="cls-1" d="M23.14,6.37a14.5,14.5,0,0,1,1.32,3.21c.06.18.08.36.13.56.1.48.21,1.06.27,1.63,0,.27,0,.57,0,.87a3.5,3.5,0,0,1,0,.87.67.67,0,0,1-.77.41,1.1,1.1,0,0,1-.28-.24l-.15-.28A13.07,13.07,0,0,0,20.28,7a13.3,13.3,0,0,0-4.34-3,15.64,15.64,0,0,0-1.83-.61c-.54-.1-1.08-.19-1.65-.24l-.34,0h-.42a11.22,11.22,0,0,0-2.76.19,13.19,13.19,0,0,0-6,2.79c-.11.1-.21.2-.33.29-.29.25-.62.64-1.14.51A.69.69,0,0,1,1.19,6,12.9,12.9,0,0,1,6.13,1.48,12,12,0,0,1,8.37.56,9.52,9.52,0,0,1,9.46.29l1-.18a14.83,14.83,0,0,1,3-.05l.41.05c.3,0,.59.13.91.15.49.13,1,.23,1.42.4s.88.33,1.29.52a13.06,13.06,0,0,1,5.69,5.2"/><path class="cls-1" d="M10.39,16.21l.05-.12c.1-.29.26-.62.41-1a5.1,5.1,0,0,0,.37-1,2.44,2.44,0,0,0,.06-.69c0-.21-.16-.42-.18-.6a1.47,1.47,0,0,1,0-.39,1.26,1.26,0,0,1,.86-1,1.42,1.42,0,0,1,1,.14,1.22,1.22,0,0,1,.58,1.12,1.42,1.42,0,0,1-.28.72c-.2.25-.53.32-.8.5a2.06,2.06,0,0,0-.61.68,5.88,5.88,0,0,0-.42.88c-.12.29-.3.63-.41,1a1.7,1.7,0,0,0-.25.07s-.08.14-.07,0l-.07,0a.86.86,0,0,1-.2-.31"/><path class="cls-2" d="M11.51,16.35c.44-.05.93-.07,1.31-.15a2.23,2.23,0,0,0,1-.48c.14-.12.23-.28.37-.39a1.27,1.27,0,0,1,.52-.26,1.25,1.25,0,0,1,1.42.86,1.27,1.27,0,0,1,0,.47,1.24,1.24,0,0,1-1.54,1.05,2.16,2.16,0,0,1-.57-.34A2.47,2.47,0,0,0,13.8,17a6.86,6.86,0,0,0-1.6,0l-.42,0c-.27,0-.45,0-.7.07a2.39,2.39,0,0,0,.18.3c.08.1.17.19.24.29a3.87,3.87,0,0,0,1.59,1.57,1.3,1.3,0,0,1,1.31,1.07,1.21,1.21,0,0,1,0,.33,1.29,1.29,0,0,1-.89,1,2,2,0,0,1-.62,0A1.21,1.21,0,0,1,12,20.46a3.35,3.35,0,0,0,0-.58,3.16,3.16,0,0,0-.73-1.5c-.34-.46-.65-.87-1-1.27-.42.06-.88.12-1.3.15l-.79.1A2.25,2.25,0,0,0,7,17.91a1.72,1.72,0,0,1-.58.52c-.06,0-.13,0-.17.06a1.25,1.25,0,0,1-1.54-1,1.57,1.57,0,0,1,0-.36,1.23,1.23,0,0,1,.89-1,1.38,1.38,0,0,1,.74,0,4.07,4.07,0,0,0,1,.54,4.41,4.41,0,0,0,1.53-.05,7.4,7.4,0,0,0,.95-.1c-.28-.42-.58-.84-.88-1.23a2.81,2.81,0,0,0-1.17-.95,1.33,1.33,0,0,1-.73-.22A1.17,1.17,0,0,1,6.57,13a1.22,1.22,0,0,1,1-1A1.55,1.55,0,0,1,8.2,12,1.24,1.24,0,0,1,9,13.11a3,3,0,0,1-.05.32,1.89,1.89,0,0,0,.29,1.1,5.68,5.68,0,0,0,.46.66c.22.3.46.65.7,1,.1.11.19.29.3.28l.81-.08"/><path class="cls-2" d="M18.91,22.68a1,1,0,0,1,1.28,1.17,1,1,0,0,1-.93.82h-.1a1,1,0,0,1-1-.85,1.11,1.11,0,0,1,0-.31,1,1,0,0,1,.7-.82"/><path class="cls-2" d="M5.63,23.13a8.71,8.71,0,0,1,0,1.24,1.94,1.94,0,0,1-.22.37C4.59,26.12,3.83,27.51,3,28.88c-.23.37-.42.77-.69,1.12a2.31,2.31,0,0,0-.23.33c1.1,0,2.51,0,3.69,0-.15.46-.28.93-.44,1.37-1.77,0-3.56,0-5.31,0v-.59a4,4,0,0,1,0-.6,1,1,0,0,1,.13-.18c0-.07.06-.15.1-.22.21-.36.47-.78.68-1.11.32-.51.61-1,.9-1.5s.62-1,.92-1.5.45-.76.69-1.12a1,1,0,0,0,.22-.37c-1,.1-2.35,0-3.45.05.09-.45.24-.93.35-1.38,1.66,0,3.42,0,5.08,0"/><path class="cls-2" d="M23.35,23.5h0a12.31,12.31,0,0,0-.07,1.89c.45,0,1,0,1.44,0-.13.37-.26.74-.4,1.09-.32,0-.69,0-1,0a4.05,4.05,0,0,0,0,.88v1.83c0,.63-.06,1.27.38,1.46a1.75,1.75,0,0,0,.94-.09c.05.32.15.64.18.94a3.4,3.4,0,0,1-.71.25c-1.13.18-2.21-.18-2.37-1.14a7.93,7.93,0,0,1,0-1c0-1,0-2.11,0-3.07a2.7,2.7,0,0,0-.62,0,10.41,10.41,0,0,1,0-1.11,5.37,5.37,0,0,0,.62,0,10.39,10.39,0,0,1,.07-1.49l1.61-.41"/><path class="cls-2" d="M13.41,25.25a1.53,1.53,0,0,1,.26.75c.06,0,.11-.05.16-.09a3.34,3.34,0,0,1,.48-.29,2.42,2.42,0,0,1,1.19-.34,2.07,2.07,0,0,1,.91.23,2,2,0,0,1,.37.26c.39.38.37,1.09.37,1.88v4c-.51,0-1.07,0-1.59,0v-2.2c0-.76,0-1.52,0-2.2,0-.11-.06-.21-.06-.33a.47.47,0,0,0-.38-.29,1.32,1.32,0,0,0-.89.27c-.15.09-.38.25-.4.35a3,3,0,0,0,0,.56v3.84c-.51,0-1.06,0-1.59,0V29.25A14.7,14.7,0,0,0,12,25.66a.82.82,0,0,1,.33-.1c.33-.09.76-.24,1.07-.31"/><path class="cls-2" d="M11.37,29c-1.21,0-2.44,0-3.63,0a1.57,1.57,0,0,0,.46,1.31,1.16,1.16,0,0,0,.54.27,1.89,1.89,0,0,0,.71,0A2.88,2.88,0,0,0,10.68,30c.23.28.41.62.62.93a1.1,1.1,0,0,1-.33.26,3.55,3.55,0,0,1-.8.4,3.59,3.59,0,0,1-.73.19,4.17,4.17,0,0,1-1.23-.05,2.76,2.76,0,0,1-2.07-2A3,3,0,0,1,6,29.14,5.5,5.5,0,0,1,6,28.59c0-.12,0-.26,0-.38A2.41,2.41,0,0,1,6,28a2.87,2.87,0,0,1,1.3-2.33,2.88,2.88,0,0,1,1.78-.35,2.47,2.47,0,0,1,1.37.57A4,4,0,0,1,11.37,29m-2.5-2.6H8.65c-.63.09-.94.69-.87,1.44H9.7c.09-.69-.17-1.36-.82-1.44"/><path class="cls-2" d="M20,31.67c-.5,0-1.06,0-1.6,0V25.51l.74-.12.39-.06a3.82,3.82,0,0,1,.43-.07c.08,0,0,.18,0,.36Z"/><path class="cls-1" d="M15,33.68a.76.76,0,0,1-.68.21c0,.09.1.18.13.29a.9.9,0,0,1-.88,1c-.1,0-.2,0-.3,0s-.33.15-.29.26.45.07.59.09l.42,0a1,1,0,0,1,.6.52,1.3,1.3,0,0,1,0,.62,1,1,0,0,1-.87.6l-.17.05c-.87.1-1.85-.25-1.55-1.09a6.65,6.65,0,0,1,.68,0c-.27.68,1.06.74,1.21.24.12-.84-1.59-.12-1.76-.75-.11-.39.19-.53.46-.64a.81.81,0,0,1-.56-.94c0-.49.51-.79,1.08-.84a3.29,3.29,0,0,1,.91.14.85.85,0,0,0,.68-.25,2.76,2.76,0,0,1,.31.46m-1.4.3a.56.56,0,0,0-.77,0,.54.54,0,0,0-.07.3c0,.5.75.54.93.14a.64.64,0,0,0-.09-.48"/><path class="cls-1" d="M6.51,36c.08-.2.19-.35.26-.54a2.87,2.87,0,0,0,.88.34c.37,0,.65-.35.36-.61-.45-.2-1.09-.12-1.28-.58,0,0,0-.08,0-.09s0-.05,0-.08a1,1,0,0,1,.22-.86,1.74,1.74,0,0,1,1.89,0,5,5,0,0,0-.22.47c-.3-.16-1-.4-1.12.1.11.4.84.33,1.16.56a.84.84,0,0,1,.29.82,1,1,0,0,1-.93.81A2.66,2.66,0,0,1,6.51,36"/><path class="cls-1" d="M22.35,36c.06-.21.17-.34.24-.53.35.16,1.07.56,1.36.09v-.23c-.15-.28-.59-.27-.92-.35a.82.82,0,0,1-.55-.94c.1-.61.77-.86,1.46-.74a2,2,0,0,1,.66.24,1.51,1.51,0,0,1-.25.46s0,0,0,0c-.27-.16-.87-.36-1.06,0s.3.36.59.44c0,0,.11.08.2.06a.88.88,0,0,1,.63.56c.13.92-.56,1.34-1.48,1.22a3.29,3.29,0,0,1-.88-.3"/><path class="cls-1" d="M11.34,35.52c.09.15.19.28.27.43a1.45,1.45,0,0,1-.72.35.7.7,0,0,1-.13,0A1.45,1.45,0,0,1,9.6,36a1.82,1.82,0,0,1-.42-1.46,1.31,1.31,0,0,1,1-1.24c1.14-.1,1.49.66,1.44,1.72-.49,0-1.13,0-1.65,0-.11.53.31.85.86.72a1.76,1.76,0,0,0,.47-.26m-.66-1.62c-.42-.2-.76.18-.68.62a6.09,6.09,0,0,0,.87,0,.62.62,0,0,0-.19-.62"/><path class="cls-1" d="M15.13,33.44c.27,0,.45-.1.7-.12,0,.51-.05,1.26,0,1.82,0,.28,0,.55.24.64a.57.57,0,0,0,.61-.3v-2c.23,0,.44-.1.68-.14,0,.74,0,1.69,0,2.45a2.64,2.64,0,0,0,.14.28c-.16.1-.34.2-.53.29a1.74,1.74,0,0,1-.22-.25,1.38,1.38,0,0,1-.89.25.84.84,0,0,1-.75-.49,5.15,5.15,0,0,1-.05-1.19c0-.42,0-.84,0-1.22"/><path class="cls-1" d="M19.61,33.38a4.26,4.26,0,0,1-.2.6.64.64,0,0,0-.7.25c0,.67,0,1.37,0,2a6,6,0,0,1-.72,0,17.8,17.8,0,0,0-.09-2.76c.22,0,.41-.12.63-.16s.07.25.13.35.1-.07.15-.12a.67.67,0,0,1,.79-.17"/><path class="cls-1" d="M20.68,33.34a1.27,1.27,0,0,1,1.47,1,4.12,4.12,0,0,1,0,.92,1.27,1.27,0,0,1-1.62,1c-.79-.16-1.09-1.12-.91-1.92a1.27,1.27,0,0,1,1.06-1m-.25,1c-.09.48-.08,1.3.27,1.46s.58-.14.64-.4c.12-.56.09-1.59-.52-1.5a.54.54,0,0,0-.39.44"/><path class="cls-3" d="M26.25,30.15a.89.89,0,1,1,0,1.79.89.89,0,1,1,0-1.79Zm0,.17a.71.71,0,0,0,0,1.42.67.67,0,0,0,.67-.71.69.69,0,0,0-.68-.71m-.15,1.18h-.2v-.89a1.63,1.63,0,0,1,.35,0,.55.55,0,0,1,.3.07.26.26,0,0,1,.09.2.22.22,0,0,1-.19.21h0c.09,0,.13.1.17.22a.62.62,0,0,0,.06.22h-.23s0-.11-.06-.22a.17.17,0,0,0-.19-.14h-.1Zm0-.51h.1c.12,0,.21,0,.21-.13s-.06-.13-.19-.13H26.1Z"/></g></g></svg>